<svg width="600" height="601" viewBox="0 0 600 601" fill="none" xmlns="http://www.w3.org/2000/svg">
<path d="M65.155 502.743C63.7706 503.209 62.4247 503.637 61.0403 504.104C58.5407 504.998 56.0026 505.892 53.503 506.786C50.465 507.875 47.4655 509.041 44.4275 510.091C42.7355 510.713 40.9666 511.14 39.2745 511.762C37.121 512.54 35.006 513.434 32.8525 514.212C30.4682 515.106 28.084 515.961 25.6613 516.816C23.4309 517.633 21.2005 518.488 18.9316 519.266C16.4704 520.16 13.9708 520.937 11.4712 521.831C9.62536 522.492 7.70259 523.114 6.01055 524.125C5.31835 524.553 5.01071 525.836 4.74152 526.808C4.43387 527.974 4.47233 529.257 4.20314 530.462C3.8955 531.862 3.01102 532.095 2.08809 530.968C1.62663 530.423 1.28053 529.607 1.24208 528.907C1.08825 525.991 1.12671 523.076 0.934431 520.16C0.742154 517.477 0.396056 514.795 0.0884123 512.112C0.0499569 511.723 -0.0654118 511.296 0.0499545 510.946C1.8189 504.726 0.665242 498.389 0.819063 492.091C1.0498 483.693 0.819062 475.257 0.703696 466.82C0.66524 464.915 0.242232 463.01 0.242232 461.106C0.242232 458.928 0.665244 456.712 0.665244 454.535C0.665244 452.242 0.242233 449.948 0.165322 447.615C0.0499557 443.339 -0.0654118 439.062 0.0499545 434.786C0.242232 428.41 0.62679 422.073 0.972889 415.697C1.0498 414.025 2.47265 412.704 3.28022 413.442C4.16469 414.298 4.51079 415.775 4.9338 417.058C5.12607 417.641 4.81843 418.341 4.89534 418.963C5.04916 420.479 6.01055 420.868 7.20267 420.246C9.74073 418.885 12.2019 417.33 14.7015 415.93C16.9704 414.686 19.3546 413.559 21.6619 412.393C23.354 411.498 25.046 410.604 26.6996 409.671C29.3146 408.233 31.9295 406.833 34.5445 405.395C38.5439 403.218 42.5432 400.963 46.581 398.824C49.4652 397.308 52.4263 395.986 55.3104 394.431C58.8483 392.565 62.2709 390.466 65.8088 388.6C69.9235 386.462 74.1921 384.557 78.3068 382.418C80.6526 381.213 82.8445 379.697 85.2288 378.492C89.3435 376.354 93.5736 374.371 97.7268 372.31C99.9957 371.183 102.265 370.017 104.533 368.85C106.572 367.762 108.61 366.634 110.648 365.546C113.263 364.146 115.186 362.358 114.916 359.014C114.801 357.576 115.339 356.254 117.147 356.332C118.916 356.371 119.031 357.693 119.031 359.092C119.031 368.345 119.07 377.636 119.07 386.889C119.07 398.513 119.031 410.138 119.07 421.801C119.07 424.172 119.531 426.544 119.608 428.876C119.646 430.043 119.07 431.248 119.07 432.453C119.031 440.54 119.031 448.665 119.031 456.751C119.031 457.607 119.07 458.462 118.877 459.278C118.531 460.756 116.839 461.339 115.685 460.406C114.724 459.628 114.839 458.851 115.955 458.306C116.301 458.151 116.57 457.762 116.801 457.179C115.109 458.19 114.186 457.373 113.378 455.779C110.148 457.607 107.071 459.434 103.918 461.106C99.0727 463.671 94.112 466.121 89.2666 468.725C84.6135 471.214 80.0373 473.857 75.3842 476.306C70.5388 478.833 65.6165 481.166 60.7326 483.654C57.5408 485.287 54.4259 487.037 51.2341 488.708C47.5424 490.652 43.8507 492.596 40.159 494.54C36.0058 496.717 31.9295 498.972 27.7379 501.071C23.8539 503.015 19.8161 504.764 15.9321 506.708C12.6249 508.341 9.35617 510.052 6.12592 511.801C4.9338 512.423 4.47233 515.572 5.43372 516.505C5.77982 516.855 6.62583 517.127 7.04884 516.933C10.356 515.572 13.6247 514.056 16.9319 512.695C18.0856 512.19 19.3161 511.918 20.5082 511.529C22.7387 510.751 24.9691 510.052 27.161 509.196C30.1221 508.069 33.0447 506.864 35.9673 505.697C38.2747 504.803 40.5435 503.87 42.8893 503.015C46.1196 501.81 49.3883 500.682 52.5801 499.438C56.4641 497.922 60.3096 496.25 64.2321 494.734C66.5779 493.84 69.0006 493.218 71.3848 492.44C73.4229 491.741 75.4226 491.002 77.4223 490.186C80.4603 488.98 83.4598 487.736 86.4978 486.492C88.4975 485.676 90.4587 484.743 92.4968 484.004C94.2658 483.343 96.1117 482.993 97.8806 482.332C99.6496 481.71 101.38 480.855 103.149 480.194C106.61 478.911 110.071 477.667 113.532 476.384C114.416 476.073 115.262 475.49 116.147 475.412C116.993 475.335 118.493 475.607 118.647 476.073C118.954 476.967 118.839 478.328 118.339 479.144C117.378 480.7 116.108 482.099 114.801 483.343C107.802 489.836 100.688 496.25 93.689 502.743C91.497 504.764 89.4204 506.98 87.2284 509.041C84.2674 511.879 81.2679 514.717 78.2683 517.516C73.5383 521.909 68.8083 526.302 64.0783 530.657C57.6947 536.527 51.3111 542.32 44.9659 548.19C38.5439 554.138 32.1218 560.086 25.6997 566.035C22.5464 568.95 19.4315 571.866 16.2397 574.743C13.3555 577.387 10.5483 580.069 7.58722 582.557C5.89518 583.996 4.81843 585.473 5.16453 587.806C5.2799 588.544 5.31835 589.4 5.12607 590.138C4.97225 590.722 4.43387 591.499 3.97241 591.538C3.47249 591.577 2.70338 591.033 2.39574 590.527C2.0881 590.061 2.08809 589.283 2.08809 588.661C1.97273 579.136 1.89582 569.611 1.81891 560.086C1.81891 557.559 1.8189 555.032 2.04964 552.505C2.08809 551.845 2.8572 551.261 3.31867 550.639C3.93395 551.261 4.54924 551.883 5.16453 552.505C5.20299 552.544 5.16453 552.622 5.16453 552.7C5.43372 553.594 5.74136 554.488 6.04901 555.382C7.01039 554.916 8.1256 554.644 8.93316 553.944C13.8939 549.706 18.8547 545.43 23.7385 541.076C28.0455 537.227 32.1602 533.222 36.4288 529.335C39.6975 526.38 43.0816 523.581 46.3503 520.626C49.5037 517.788 52.5032 514.834 55.6565 512.034C58.2715 509.702 61.0018 507.564 63.6553 505.27C64.3859 504.648 65.0397 503.87 65.6934 503.17C65.4627 503.17 65.3088 502.937 65.155 502.743ZM7.16421 454.108C9.81764 452.825 12.3557 451.697 14.8168 450.375C17.0857 449.17 19.2008 447.732 21.4696 446.488C27.0457 443.416 32.5448 440.151 38.2747 437.507C42.3894 435.602 45.9273 432.764 50.1959 431.092C54.6951 429.304 58.5791 426 62.8477 423.55C66.4625 421.49 70.1927 419.701 73.8844 417.758C75.1919 417.058 76.4225 416.203 77.73 415.542C80.0757 414.414 82.5369 413.559 84.7673 412.276C90.3818 409.166 95.804 405.706 101.726 403.062C105.187 401.507 108.379 399.252 111.494 397.075C113.57 395.637 114.916 392.177 112.878 390.272C112.532 389.961 111.801 389.611 111.494 389.766C109.34 390.777 107.264 391.943 105.187 393.071C99.8034 396.025 94.4196 399.058 88.9974 402.012C86.0748 403.606 83.0753 405.084 80.1142 406.6C79.5374 406.872 79.0374 407.261 78.4606 407.533C74.5766 409.399 70.6541 411.226 66.8086 413.17C64.6936 414.259 62.7323 415.58 60.6173 416.708C58.233 417.991 55.7334 419.118 53.3107 420.362C50.6189 421.762 47.9654 423.239 45.2736 424.678C43.8122 425.455 42.274 426.194 40.8127 426.971C39.1207 427.866 37.5056 428.838 35.8135 429.654C32.7371 431.131 29.5837 432.375 26.5842 433.892C21.6235 436.419 16.7781 439.14 11.8558 441.745C10.3176 442.561 8.70243 443.183 7.20267 444.038C4.74152 445.477 5.01071 447.926 4.97225 450.298C5.01071 452.203 5.74136 453.408 7.16421 454.108ZM5.12607 482.294C5.12607 483.849 5.04916 485.015 5.16453 486.181C5.24144 487.114 5.7029 487.814 6.85657 487.231C9.12544 486.065 11.4328 484.859 13.7016 483.693C17.0088 481.982 20.2775 480.272 23.5847 478.522C28.6223 475.879 33.66 473.313 38.6977 470.63C40.3513 469.736 41.8895 468.57 43.5431 467.676C47.8116 465.421 52.1571 463.244 56.3872 460.989C58.3484 459.939 60.1558 458.656 62.117 457.645C64.1552 456.596 66.3856 455.857 68.4622 454.807C70.9233 453.524 73.1922 452.008 75.6534 450.686C79.4604 448.626 83.3445 446.721 87.1515 444.699C89.6896 443.339 92.1123 441.861 94.6504 440.501C97.8422 438.829 101.111 437.313 104.303 435.641C106.187 434.669 107.879 433.231 109.84 432.453C113.724 430.859 114.301 430.548 114.109 426.466C114.07 425.883 113.763 424.95 113.455 424.872C112.724 424.717 111.878 424.911 111.109 425.105C110.648 425.222 110.263 425.65 109.84 425.805C107.994 426.583 106.072 427.166 104.341 428.099C98.9958 430.976 93.7274 434.008 88.3821 436.885C85.7287 438.324 82.9599 439.529 80.268 440.851C79.8065 441.084 79.422 441.434 78.999 441.667C74.8842 443.611 70.6926 445.399 66.6163 447.46C62.7708 449.365 59.0406 451.581 55.1951 453.563C49.5037 456.479 43.7738 459.278 38.0824 462.116C35.1213 463.594 32.1603 465.11 29.1992 466.548C25.1614 468.492 21.0851 470.319 17.0473 472.263C14.663 473.43 12.4326 474.829 10.0099 475.879C6.77966 477.162 3.78013 478.328 5.12607 482.294Z" fill="black"/>
<path d="M593.264 551.65C593.072 550.329 593.033 549.007 592.649 547.84C591.803 545.002 588.957 544.341 586.842 542.981C583.996 541.192 580.997 539.715 577.997 538.16C575.92 537.071 573.805 536.177 571.729 535.089C567.153 532.678 562.653 530.151 558.077 527.741C554.924 526.069 551.617 524.631 548.463 522.92C546.425 521.832 544.579 520.432 542.58 519.266C541.003 518.372 539.311 517.711 537.734 516.855C535.927 515.922 534.196 514.873 532.35 513.978C530.543 513.084 528.62 512.385 526.813 511.451C524.467 510.246 522.237 508.808 519.891 507.564C517.968 506.553 515.968 505.775 514.084 504.687C510.277 502.549 506.547 500.216 502.701 498.078C499.932 496.523 497.048 495.201 494.28 493.685C491.434 492.13 488.627 490.497 485.781 488.903C484.589 488.242 483.627 488.747 483.32 490.186C483.051 491.508 482.666 492.868 480.974 492.635C479.359 492.402 479.205 491.158 479.167 489.758C479.128 488.164 478.705 486.57 478.705 485.015C478.705 483.071 478.974 481.166 479.128 479.222C479.128 479.145 479.167 479.106 479.167 479.028C479.051 476.89 478.859 474.752 478.782 472.613C478.744 471.486 479.013 470.358 479.013 469.27C479.09 455.546 479.167 441.823 479.243 428.099C479.282 418.38 479.243 408.661 479.359 398.98C479.397 396.492 479.974 394.004 479.936 391.555C479.897 387.239 479.359 382.924 479.436 378.609C479.551 371.883 480.013 365.196 480.397 358.47C480.436 357.654 480.897 356.721 481.397 356.06C482.128 355.088 483.82 355.321 484.243 356.488C484.666 357.537 485.05 358.665 485.089 359.792C485.204 361.775 485.973 362.902 487.896 363.796C491.549 365.507 494.895 367.801 498.433 369.745C500.932 371.105 503.547 372.233 506.047 373.555C508.47 374.876 510.777 376.393 513.161 377.753C517.853 380.358 522.583 382.885 527.274 385.49C531.274 387.706 535.235 390.077 539.272 392.293C543.695 394.743 548.156 397.075 552.54 399.524C557.577 402.324 562.576 405.278 567.614 408.077C570.614 409.749 573.767 411.188 576.766 412.82C579.074 414.064 581.266 415.503 583.573 416.786C586.303 418.341 589.034 419.935 591.803 421.451C593.879 422.579 594.879 421.918 594.956 419.507C594.956 419.196 594.879 418.807 594.994 418.535C595.456 417.641 595.802 416.475 596.571 415.969C597.032 415.658 598.186 416.397 598.994 416.669C598.801 416.786 598.571 416.902 598.378 417.019C598.378 418.846 598.301 420.674 598.417 422.501C598.571 425.067 599.378 427.71 598.955 430.121C598.186 434.358 598.378 438.596 598.34 442.795C598.186 457.218 598.263 471.68 598.032 486.104C597.917 494.89 597.34 503.637 597.071 512.385C596.725 523.192 596.494 534.039 596.225 544.847C596.186 546.402 596.225 547.957 596.071 549.512C595.917 550.951 595.417 552.272 593.264 551.65ZM593.072 483.654C593.456 481.905 593.033 480.428 591.341 479.495C590.61 479.067 589.957 478.562 589.226 478.173C586.227 476.423 583.227 474.635 580.189 472.963C576.92 471.175 573.536 469.581 570.229 467.831C568.345 466.86 566.576 465.693 564.691 464.721C559.423 461.922 554.155 459.123 548.886 456.324C546.579 455.08 544.272 453.875 542.003 452.592C540.234 451.581 538.503 450.492 536.734 449.404C536.311 449.132 535.888 448.898 535.427 448.665C530.505 446.06 525.582 443.494 520.698 440.812C519.199 439.995 517.968 438.79 516.468 437.974C513.815 436.497 511.085 435.175 508.431 433.697C503.855 431.17 499.279 428.604 494.741 426.039C492.203 424.6 489.703 423.045 487.165 421.684C485.358 420.712 484.012 421.451 483.82 423.434C483.666 425.106 483.55 426.816 483.743 428.449C483.858 429.46 484.281 430.82 485.012 431.287C488.011 433.192 491.203 434.825 494.356 436.535C499.24 439.179 504.163 441.784 509.085 444.427C510.239 445.049 511.354 445.788 512.469 446.449C514.699 447.732 516.93 448.937 519.16 450.22C520.468 450.959 521.698 451.814 523.044 452.475C525.967 453.913 529.005 455.158 531.889 456.713C534.542 458.112 536.927 459.939 539.58 461.339C543.156 463.244 546.887 464.838 550.463 466.743C555.308 469.309 560.038 472.108 564.845 474.752C569.652 477.395 574.498 480.039 579.305 482.644C582.573 484.432 585.88 486.181 589.226 487.853C589.764 488.125 590.61 488.009 591.264 487.853C593.341 487.231 593.187 485.443 593.072 483.654ZM485.704 455.818C483.435 457.101 483.32 457.101 483.627 461.572C483.704 462.622 484.396 463.944 485.204 464.527C487.896 466.354 490.78 467.948 493.626 469.581C500.009 473.196 506.355 476.812 512.777 480.35C516.545 482.449 520.391 484.432 524.236 486.415C528.351 488.592 532.504 490.73 536.619 492.946C539.311 494.423 541.964 496.017 544.656 497.495C550.617 500.721 556.577 503.948 562.576 507.136C565.499 508.691 568.499 510.207 571.46 511.685C572.959 512.462 574.613 513.007 575.997 513.94C580.266 516.778 584.496 519.693 589.687 520.588C590.072 520.665 590.341 521.365 590.687 521.365C591.226 521.365 592.149 521.171 592.264 520.821C592.687 519.732 592.956 518.527 593.033 517.361C593.072 516.544 592.764 515.65 592.495 514.834C591.879 512.89 590.572 511.879 588.649 511.14C586.534 510.363 584.688 508.924 582.689 507.797C579.766 506.125 576.805 504.531 573.844 502.899C573.075 502.471 572.306 502.082 571.537 501.732C567.922 500.022 564.23 498.428 560.654 496.562C557.346 494.812 554.232 492.713 550.963 490.924C547.194 488.864 543.31 487.037 539.465 485.054C536.081 483.304 532.696 481.555 529.351 479.767C526.928 478.484 524.582 477.045 522.16 475.723C520.352 474.713 518.545 473.741 516.699 472.808C514.238 471.564 511.738 470.436 509.316 469.114C506.585 467.637 503.932 466.004 501.24 464.488C496.048 461.572 490.857 458.695 485.704 455.818ZM528.466 410.021C528.428 410.216 528.389 410.41 528.389 410.604C523.967 408.155 519.583 405.667 515.122 403.296C511.354 401.313 507.393 399.68 503.74 397.542C500.702 395.753 497.856 393.615 494.51 392.293C491.895 391.244 489.626 389.378 487.165 387.9C485.973 387.2 484.627 387.9 484.473 389.3C484.358 390.388 484.55 391.516 484.435 392.604C484.127 395.131 485.589 396.414 487.55 397.464C489.626 398.591 491.588 399.835 493.626 401.041C493.895 401.196 494.203 401.313 494.472 401.468C497.548 403.062 500.663 404.617 503.74 406.25C506.585 407.766 509.354 409.477 512.238 410.993C514.123 412.004 516.199 412.665 518.045 413.676C520.545 415.036 522.929 416.591 525.352 418.069C527.197 419.157 529.005 420.285 530.928 421.296C532.812 422.268 534.812 423.006 536.619 424.056C540.926 426.466 545.156 429.071 549.502 431.404C554.155 433.931 558.923 436.186 563.615 438.674C567.768 440.89 571.806 443.3 575.92 445.594C578.305 446.916 580.727 448.16 583.112 449.443C585.457 450.726 587.726 452.125 590.149 453.214C592.187 454.147 594.033 452.786 594.11 450.57C594.225 447.732 593.418 445.672 590.495 444.35C587.111 442.795 584.035 440.501 580.727 438.713C576.459 436.38 572.113 434.242 567.806 431.987C563.922 429.926 560.077 427.866 556.231 425.766C555.577 425.417 555.001 424.95 554.385 424.6C551.693 423.045 548.963 421.49 546.233 419.974C544.772 419.157 543.272 418.496 541.81 417.68C540.426 416.902 538.926 416.203 537.773 415.153C536.542 413.948 535.696 412.354 534.581 410.993C533.696 409.866 532.543 409.399 530.851 410.255C531.658 410.799 532.35 411.149 532.85 411.654C533.312 412.121 533.581 412.743 533.927 413.326C533.773 413.442 533.658 413.52 533.504 413.637C532.235 412.82 530.966 412.043 530.12 411.537C530.12 410.293 530.12 409.594 530.12 408.894C529.543 409.244 529.005 409.632 528.466 410.021Z" fill="black"/>
<path d="M305.617 1.07349C309.463 1.07349 313.308 1.07349 317.154 1.07349C325.306 1.11236 333.497 1.07349 341.65 1.229C349.11 1.34563 356.57 1.69552 364.031 1.88991C364.954 1.92878 365.646 2.00654 365.646 3.2506C365.608 4.33916 365.454 5.19446 364.108 5.19446C363.069 5.19446 362.07 5.23333 361.031 5.23333C358.916 5.27221 357.916 6.28301 357.878 8.46013C357.878 9.62644 357.955 10.7927 357.993 11.9591C358.032 13.9418 357.955 15.8856 358.032 17.8684C358.109 19.9677 358.493 22.0671 358.493 24.1665C358.609 47.8815 358.686 71.5965 358.724 95.3115C358.724 100.793 358.647 106.275 358.762 111.756C358.839 114.983 360.108 117.083 363.646 116.927C364.262 116.888 365.069 117.005 365.415 117.394C365.954 118.016 366.607 119.337 366.377 119.61C365.723 120.348 364.685 121.048 363.723 121.126C361.07 121.398 358.339 121.281 355.648 121.398C350.687 121.592 345.726 121.903 340.765 122.059C336.997 122.176 333.19 122.137 329.421 122.059C326.345 121.981 323.307 121.592 320.23 121.553C318.307 121.515 316.385 121.826 314.462 121.981C313.693 122.02 312.924 122.098 312.154 122.059C308.078 121.942 304.04 121.787 299.964 121.709C293.696 121.592 287.428 121.515 281.159 121.437C279.775 121.437 278.544 120.698 278.544 119.493C278.506 118.288 279.39 117.199 281.006 117.044C283.198 116.849 283.928 115.333 282.967 113.35C280.736 108.763 278.583 104.137 276.391 99.5491C274.084 94.6894 271.776 89.8687 269.507 85.009C269.123 84.2315 268.969 83.2596 268.431 82.6375C267.354 81.3546 266.277 81.5879 265.508 83.1041C264.547 85.009 263.585 86.9529 262.624 88.8579C260.201 93.6397 257.702 98.3828 255.317 103.204C254.433 104.914 253.779 106.741 252.972 108.53C252.164 110.318 251.356 112.067 250.51 113.856C249.472 116.033 250.01 116.888 252.472 117.083C253.395 117.16 254.471 116.849 254.74 118.288C254.971 119.532 254.587 120.426 253.587 121.087C253.279 121.281 252.895 121.359 252.51 121.359C247.626 121.32 242.781 121.32 237.897 121.204C237.089 121.204 236.205 120.931 235.551 120.543C235.09 120.271 234.628 119.493 234.667 118.949C234.705 118.327 235.128 117.471 235.628 117.16C236.436 116.694 237.474 116.266 238.358 116.383C241.55 116.81 242.473 114.283 243.511 112.301C245.434 108.53 246.972 104.564 248.78 100.715C249.895 98.3439 251.164 96.0501 252.318 93.7175C254.548 89.2078 256.779 84.698 258.971 80.1883C260.47 77.117 262.201 74.0846 263.201 70.8189C263.662 69.3416 262.893 67.32 262.316 65.6872C261.201 62.4992 259.817 59.4279 258.548 56.2789C256.856 52.1191 255.24 47.9592 253.471 43.8771C252.318 41.1169 250.856 38.5121 249.741 35.7518C248.626 33.0693 247.78 30.309 246.703 27.5876C245.242 23.8943 243.627 20.2399 242.166 16.5466C241.204 14.0973 240.32 11.648 239.628 9.12103C238.935 6.67178 237.32 5.19446 234.744 5.19446C234.244 5.19446 233.705 5.15558 233.205 5.19446C232.013 5.23333 231.629 4.57242 231.59 3.52274C231.552 2.35643 232.052 1.8899 233.205 1.92878C236.474 1.92878 239.743 1.96766 243.012 1.85103C249.587 1.69552 256.202 1.42338 262.778 1.26787C263.508 1.26787 264.354 1.42338 264.931 1.77327C265.508 2.12317 266.316 3.09509 266.162 3.40611C265.816 4.1059 265.047 4.65018 264.316 5.1167C264.008 5.31109 263.431 5.15558 263.008 5.19446C260.663 5.34996 260.317 6.28301 261.393 8.38237C262.624 10.7928 263.47 13.3975 264.585 15.8468C265.777 18.3738 267.162 20.7453 268.354 23.2723C269.161 24.9829 269.777 26.7712 270.546 28.4818C271.699 31.0866 272.891 33.6525 274.007 36.2572C274.583 37.579 274.93 39.0175 275.583 40.3004C276.699 42.5164 278.006 42.5553 279.198 40.3004C280.583 37.6568 281.813 34.9743 283.159 32.2918C284.736 29.1427 286.389 26.0326 287.928 22.8835C289.35 20.0066 290.658 17.0908 292.042 14.2139C292.696 12.8532 293.388 11.4925 294.196 10.2485C296.003 7.4882 295.311 5.89424 292.158 5.15558C291.465 5.00007 290.504 3.83376 290.542 3.2506C290.658 1.96766 291.658 1.19012 293.119 1.19012C297.272 1.229 301.464 1.19012 305.617 1.19012C305.617 1.11236 305.617 1.11236 305.617 1.07349ZM310.001 11.8424C310.155 11.8424 310.309 11.8424 310.462 11.8424C310.232 10.6372 310.116 9.39318 309.732 8.26574C309.155 6.55515 306.348 5.50547 304.733 6.1275C302.079 7.13831 301.387 9.70419 300.349 11.8813C298.118 16.4299 296.311 21.1729 294.119 25.7604C291.581 31.0866 288.889 36.335 286.274 41.5834C284.928 44.2659 283.851 47.065 282.275 49.592C280.775 51.9635 281.006 54.024 282.121 56.3955C283.967 60.361 285.697 64.3653 287.389 68.4085C288.85 71.9852 290.12 75.6008 291.619 79.1775C293.427 83.454 295.388 87.6916 297.272 91.968C298.618 95.0004 299.887 98.1106 301.233 101.143C301.81 102.465 302.618 103.67 303.156 105.031C304.54 108.413 305.848 111.834 307.078 115.294C307.578 116.733 308.693 116.461 309.347 115.994C309.847 115.644 310.001 114.517 310.001 113.739C310.001 107.558 309.847 101.337 309.847 95.156C309.847 87.6527 310.001 80.1494 310.001 72.6461C310.039 52.3134 310.001 32.0974 310.001 11.8424ZM337.65 63.5878C337.689 63.5878 337.727 63.5878 337.766 63.5878C337.766 52.1968 337.766 40.8058 337.766 29.4149C337.766 23.1557 337.804 16.8576 337.574 10.5984C337.497 8.69339 337.112 6.43852 335.228 5.42771C331.997 3.756 328.883 5.89424 328.998 9.58756C329.19 17.5962 329.613 25.6049 329.69 33.5747C329.882 49.4365 329.921 65.2984 329.998 81.1602C330.036 91.4626 329.998 101.765 330.113 112.029C330.113 113.389 330.613 115.1 331.536 115.994C333.151 117.51 335.343 116.81 337.035 115.877C337.65 115.528 337.65 113.817 337.65 112.728C337.689 96.3223 337.65 79.955 337.65 63.5878Z" fill="black"/>
<path d="M599.109 264.932C599.379 268.081 599.802 271.191 599.917 274.34C599.994 276.867 599.571 279.394 599.571 281.921C599.571 283.982 599.917 286.003 599.994 288.064C600.032 288.958 599.648 289.891 599.609 290.824C599.571 291.951 599.686 293.118 599.725 294.245C599.763 295.917 599.802 297.55 599.84 299.221C599.879 300.038 600.032 300.854 599.994 301.632C599.879 303.498 599.571 305.325 599.532 307.152C599.417 310.651 599.417 314.111 599.417 317.61C599.379 327.563 599.302 337.554 599.34 347.507C599.34 349.062 598.686 350.15 597.302 350.189C595.764 350.228 594.879 349.14 595.148 347.507C595.61 344.397 593.533 343.658 591.111 343.619C588.534 343.619 585.996 343.58 583.42 343.697C581.266 343.813 579.113 344.202 576.959 344.319C575.921 344.358 574.883 344.047 573.844 343.891C573.575 343.852 573.344 343.775 573.075 343.775C570.191 343.969 567.268 344.28 564.384 344.358C557.155 344.474 549.925 344.436 542.695 344.436C530.62 344.436 518.545 344.474 506.47 344.474C500.356 344.474 494.241 344.474 488.165 344.474C486.281 344.474 484.551 346.263 484.512 348.207C484.474 349.412 484.512 350.617 482.859 350.656C481.243 350.695 480.705 349.606 480.397 348.245C480.09 346.768 479.744 345.33 479.436 343.852C479.398 343.736 479.359 343.58 479.398 343.464C479.821 339.576 478.975 335.61 479.436 331.762C480.705 321.343 480.205 310.923 480.128 300.504C480.09 294.867 480.667 289.308 480.436 283.671C480.205 277.995 480.282 272.28 480.436 266.565C480.513 263.493 480.936 260.422 481.359 257.39C481.436 256.846 482.397 255.99 482.936 255.99C483.705 256.029 484.589 256.573 485.243 257.118C485.551 257.39 485.397 258.245 485.474 258.789C485.704 260.5 487.396 262.094 489.088 262.055C494.472 261.9 499.817 261.666 505.201 261.55C507.239 261.511 509.277 261.705 511.316 261.783C511.585 261.783 511.816 261.822 512.085 261.822C514.354 261.783 516.584 261.744 518.853 261.666C524.083 261.511 529.313 261.277 534.543 261.2C536.235 261.161 537.927 261.589 539.657 261.705C541.042 261.822 542.503 261.977 543.887 261.783C547.425 261.239 550.925 261.316 554.463 261.55C559.962 261.9 565.461 261.977 570.96 262.055C578.344 262.133 585.688 262.016 593.072 262.133C594.726 262.172 595.379 261.627 595.572 260.033C595.648 259.139 596.11 258.284 596.148 257.39C596.225 255.99 597.033 255.912 598.071 255.951C599.302 255.99 599.532 256.69 599.494 257.74C599.456 260.072 599.494 262.405 599.494 264.738C599.225 264.932 599.186 264.932 599.109 264.932ZM551.925 293.273C553.578 293.273 555.27 293.273 556.924 293.273C567.884 293.273 578.805 293.312 589.765 293.196C590.803 293.196 592.264 292.651 592.841 291.835C594.187 289.891 591.495 284.332 588.65 284.565C587.381 284.681 586.112 284.565 584.804 284.448C581.035 284.176 577.305 283.904 573.537 283.593C568.268 283.126 563.038 284.098 557.77 283.632C553.463 283.243 549.079 283.515 544.695 283.593C543.195 283.632 541.695 283.982 540.196 283.982C539.004 283.982 537.811 283.632 536.619 283.593C531.812 283.554 527.005 283.476 522.199 283.593C519.737 283.671 517.315 284.176 514.854 284.409C514.046 284.487 513.238 284.254 512.431 284.098C511.7 283.943 510.97 283.593 510.239 283.593C503.202 283.554 496.164 283.554 489.088 283.554C486.55 283.554 485.32 284.876 485.281 287.442C485.281 288.491 485.166 289.541 485.358 290.552C485.512 291.329 485.897 292.262 486.473 292.768C488.858 294.828 491.665 294.362 494.434 293.895C495.51 293.701 496.664 293.701 497.779 293.74C500.625 293.856 503.471 294.012 506.316 294.167C506.432 294.167 506.547 294.09 506.701 294.051C508.124 293.779 509.547 293.39 511.008 293.312C513.354 293.196 515.738 293.273 518.084 293.273C529.39 293.273 540.657 293.273 551.925 293.273ZM582.727 324.375C582.727 324.297 582.727 324.219 582.727 324.142C585.112 324.142 587.457 324.181 589.842 324.142C591.534 324.103 593.072 322.548 593.11 320.837C593.149 319.982 593.11 319.165 593.11 318.31C593.072 316.327 591.572 314.656 589.611 314.656C584.689 314.578 579.766 314.539 574.806 314.539C567.076 314.5 559.308 314.461 551.579 314.461C547.733 314.461 543.849 314.5 540.003 314.422C536.965 314.384 533.927 313.956 530.889 314.111C526.006 314.345 521.122 315.044 516.238 313.917C515.623 313.762 514.969 313.917 514.315 313.956C512.354 314.111 510.393 314.461 508.431 314.461C504.855 314.422 501.317 314.111 497.741 314.111C494.549 314.111 491.357 314.422 488.204 314.539C486.473 314.578 485.627 315.666 485.397 317.144C485.166 318.543 485.435 319.982 485.281 321.381C485.127 323.247 486.166 323.947 487.704 324.219C488.627 324.375 489.627 324.297 490.588 324.258C495.741 324.064 500.894 323.792 506.047 323.675C510.162 323.597 514.238 323.636 518.353 323.675C520.007 323.714 521.622 324.025 523.275 324.025C524.775 324.025 526.313 323.636 527.813 323.675C531.12 323.753 534.427 324.142 537.735 324.181C547.771 324.258 557.847 324.258 567.884 324.219C569.729 324.219 571.575 323.753 573.383 323.792C576.498 323.792 579.613 324.142 582.727 324.375Z" fill="black"/>
<path d="M135.721 39.8728C136.336 38.3566 137.067 36.8793 137.49 35.3242C138.259 32.6028 138.836 29.8037 139.451 27.0434C139.759 25.6827 140.066 24.322 140.413 22.9224C141.028 20.3954 141.759 17.9462 142.258 15.3803C142.797 12.62 143.181 9.78199 143.527 6.98285C143.758 5.15562 142.528 4.53359 140.951 4.37808C140.489 4.33921 140.066 4.37808 139.605 4.37808C138.413 4.41696 137.528 4.30033 137.49 2.6675C137.49 1.07354 138.259 0.87915 139.528 0.87915C152.68 0.918027 165.793 0.956903 178.945 0.956903C180.022 0.956903 181.137 0.91803 182.214 0.91803C183.29 0.91803 184.213 1.11242 184.444 2.47311C184.713 3.98932 183.713 4.45584 182.675 4.72798C181.752 5.00012 180.791 5.00012 179.829 5.03899C178.253 5.11675 177.945 6.16643 178.445 7.29386C179.56 9.89863 180.906 12.4256 182.06 15.0304C182.444 15.8857 182.56 16.8576 182.906 17.7518C184.406 21.4451 186.021 25.0996 187.521 28.8318C189.482 33.6914 191.366 38.5899 193.366 43.4495C194.635 46.5597 196.096 49.5921 197.442 52.6634C199.019 56.279 200.557 59.9334 202.095 63.5878C203.633 67.2034 205.248 70.819 206.787 74.4734C207.556 76.2617 208.171 78.1279 208.902 79.9551C210.055 82.7542 211.209 85.5534 212.44 88.3525C214.209 92.4346 216.093 96.4389 217.785 100.521C218.939 103.32 219.9 106.236 220.938 109.113C221.63 110.94 222.169 112.845 223.092 114.556C223.476 115.294 224.553 115.839 225.438 116.111C227.091 116.577 228.822 116.655 230.437 117.199C231.014 117.394 231.629 118.327 231.744 118.988C231.821 119.415 231.091 120.271 230.552 120.465C229.437 120.893 228.206 121.165 227.053 121.204C219.862 121.32 212.709 121.359 205.518 121.398C204.672 121.398 203.787 121.087 202.941 120.893C202.71 120.854 202.441 120.62 202.249 120.659C196.25 122.176 190.212 121.009 184.175 121.242C177.791 121.476 171.369 121.32 164.947 121.281C164.447 121.281 163.909 121.242 163.447 121.087C161.217 120.271 160.909 119.493 162.371 117.666C163.64 116.033 163.178 114.711 162.14 113.35C158.487 108.607 154.795 103.864 151.142 99.1215C148.834 96.1279 146.527 93.1733 144.22 90.2186C142.374 87.886 140.528 85.5534 138.682 83.2596C137.836 82.1711 137.105 82.1711 136.644 83.5318C135.99 85.5922 135.375 87.6527 134.798 89.7521C134.49 90.9184 134.183 92.1236 133.952 93.2899C133.221 97.1776 132.529 101.104 131.76 104.992C131.299 107.325 130.606 109.579 130.145 111.873C129.914 112.923 129.837 114.05 129.914 115.139C129.953 115.489 130.568 115.916 131.029 116.15C131.799 116.577 132.837 116.694 133.375 117.277C133.837 117.782 133.952 118.832 133.837 119.571C133.798 119.921 132.952 120.348 132.414 120.426C129.645 120.737 126.838 121.048 124.031 121.087C122.531 121.126 120.993 120.776 119.531 120.387C119.147 120.271 118.608 119.415 118.685 118.988C118.839 118.016 119.224 117.044 119.724 116.188C120.262 115.294 121.454 114.672 121.685 113.739C122.762 109.385 123.761 105.031 124.569 100.599C125.377 96.2057 125.915 91.7348 126.684 87.3028C127.145 84.6203 127.722 81.9378 128.299 79.2942C128.722 77.2337 129.376 75.2121 129.607 73.1516C129.722 72.063 129.453 70.6635 128.837 69.8082C125.607 65.1429 122.185 60.5943 118.954 55.9679C116.109 51.9247 113.455 47.7649 110.687 43.6828C110.264 43.0608 109.533 42.672 109.071 42.0499C106.687 38.6288 104.341 35.1298 101.957 31.7087C100.188 29.2205 98.2654 26.8101 96.5349 24.322C94.3045 21.1341 92.2664 17.7907 90.036 14.6416C87.8825 11.6092 85.6136 8.65456 83.1909 5.85541C81.4988 3.91156 78.9992 4.49472 76.7304 4.33921C76.192 4.30033 75.3844 3.6783 75.2691 3.13402C74.9999 2.16209 75.3075 1.15129 76.615 1.03466C77.3072 0.956908 78.0379 0.956903 78.73 0.956903C82.268 0.956903 85.7674 0.956903 89.3053 0.956903C96.9195 0.956903 104.572 0.995784 112.186 0.91803C113.801 0.91803 114.532 1.46231 114.148 3.01739C113.994 3.56167 113.301 4.14482 112.763 4.30033C111.994 4.53359 111.11 4.30033 110.302 4.41696C109.879 4.49472 109.302 4.88349 109.225 5.23338C109.11 5.73878 109.187 6.43857 109.456 6.82734C111.071 8.96558 112.802 11.0261 114.455 13.1643C116.762 16.1578 118.993 19.2291 121.3 22.2227C125.53 27.7043 129.76 33.1082 133.991 38.5899C134.337 39.0564 134.606 39.5618 134.875 40.0672C135.106 39.9895 135.413 39.9117 135.721 39.8728ZM152.872 6.12755C152.065 7.25499 150.988 8.11028 150.719 9.15996C149.642 13.3587 148.796 17.6352 147.834 21.8339C147.604 22.8836 147.027 23.8555 146.835 24.9052C146.066 28.8318 145.489 32.7972 144.604 36.7238C143.874 39.9895 142.643 43.1774 141.951 46.4819C141.489 48.659 141.451 50.9139 143.181 52.8578C145.027 54.9183 146.681 57.1342 148.411 59.3114C152.949 65.1818 157.564 71.0522 162.063 77.0004C164.024 79.5663 165.793 82.2877 167.754 84.8925C169.1 86.6808 170.677 88.3136 172.061 90.0631C174.407 93.0566 176.676 96.1668 179.022 99.1603C182.675 103.826 186.405 108.413 189.943 113.156C191.712 115.528 193.558 117.122 196.788 116.266C198.749 115.722 199.596 114.595 198.75 112.651C196.673 107.791 194.558 102.931 192.443 98.1107C191.597 96.1279 190.712 94.1841 189.943 92.1625C189.251 90.413 188.674 88.5858 187.905 86.8363C186.444 83.5318 184.406 80.4216 183.406 77.0004C181.983 72.0242 179.176 67.7088 177.791 62.6937C176.445 57.834 173.484 53.5187 172.061 48.5424C171.1 45.1601 169.216 42.0888 167.754 38.862C166.601 36.2573 165.37 33.6525 164.332 30.97C163.486 28.754 162.947 26.4214 162.101 24.2054C160.909 20.9786 159.448 17.8684 158.294 14.6416C157.218 11.4537 155.718 8.61568 152.872 6.12755Z" fill="black"/>
<path d="M119.07 249.07C119.07 253.852 119.108 258.673 119.031 263.454C119.031 264.232 118.416 265.398 117.801 265.67C117.262 265.904 116.147 265.204 115.609 264.621C114.917 263.882 114.378 262.871 114.032 261.861C113.532 260.5 112.455 260.228 111.148 260.889C108.648 262.172 106.072 263.221 103.495 264.388C101.342 265.359 99.2268 266.331 97.0733 267.264C95.3428 268.003 93.5738 268.586 91.8818 269.364C89.3822 270.491 86.9595 271.774 84.4214 272.863C81.3834 274.185 78.2685 275.351 75.2306 276.634C74.3845 276.984 73.3847 277.372 72.8463 278.033C72.5002 278.461 72.6925 279.938 73.0771 280.172C77.6917 283.087 82.4217 285.848 87.1133 288.608C91.2665 291.018 95.4581 293.312 99.5729 295.722C101.034 296.578 102.342 297.627 103.803 298.522C105.418 299.493 107.149 300.349 108.802 301.243C109.725 301.748 110.686 302.215 111.609 302.681C113.225 303.498 114.263 302.992 114.647 301.243C114.724 300.932 114.609 300.465 114.763 300.31C115.493 299.571 116.263 298.483 117.147 298.327C118.454 298.133 118.916 299.377 118.916 300.582C118.993 304.392 119.07 308.202 119.07 312.012C119.031 322.12 118.954 332.189 118.916 342.297C118.916 343.58 118.724 344.669 117.109 344.669C115.493 344.669 114.878 343.697 114.686 342.258C114.609 341.753 114.763 341.209 114.647 340.703C114.57 340.237 114.455 339.459 114.147 339.342C112.455 338.759 110.725 338.254 108.994 337.826C108.264 337.671 107.456 337.826 106.649 337.787C106.341 337.787 105.956 337.593 105.726 337.71C101.765 339.187 97.6116 338.409 93.5738 338.448C87.3825 338.526 81.1912 338.371 74.9998 338.254C66.3858 338.098 57.8102 337.826 49.1962 337.671C46.1198 337.593 43.0434 337.593 39.9669 337.671C37.8134 337.71 35.6599 338.137 33.5449 338.098C25.5077 338.021 17.4705 337.787 9.39484 337.632C5.08783 337.554 4.74174 337.943 4.24182 342.375C4.12645 343.191 4.47255 344.513 2.97279 344.552C1.47302 344.552 1.12692 343.425 0.934647 342.219C0.896192 342.025 0.934645 341.831 0.896189 341.636C0.857734 340.548 0.896194 339.42 0.780828 338.332C0.58855 336.038 0.357813 333.744 0.12708 331.45C0.0886249 330.984 0.0886285 330.556 0.0886285 330.09C0.280906 323.597 0.934645 317.066 0.511635 310.573C0.203991 305.519 0.0501742 300.465 0.0117188 295.373C0.0117188 292.029 0.396271 288.725 0.550093 285.381C0.665459 283.087 0.627001 280.794 0.703912 278.539C0.703912 277.956 0.588546 277.256 0.896189 276.828C1.3192 276.206 2.0114 275.506 2.66514 275.39C3.12661 275.312 3.81881 276.089 4.24182 276.595C4.51101 276.906 4.511 277.45 4.58791 277.878C4.89556 280.249 6.20304 281.027 8.395 280.055C12.5866 278.189 16.7014 276.206 20.9315 274.418C23.6618 273.251 26.546 272.396 29.3148 271.269C30.1223 270.958 30.6992 270.141 31.3914 269.558C30.8914 269.053 30.43 268.508 29.8531 268.12C27.392 266.331 24.9308 264.504 22.3928 262.832C20.1239 261.355 17.6628 260.111 15.317 258.75C13.1635 257.506 11.0484 256.223 8.93338 254.94C8.66419 254.785 8.395 254.59 8.12581 254.474C5.01092 252.997 4.8571 253.152 4.08799 256.534C3.97263 257.079 3.01124 257.895 2.58823 257.817C1.97295 257.701 1.08847 256.923 1.01156 256.34C0.780824 254.629 0.81928 252.841 0.81928 251.092C0.81928 247.476 0.857736 243.822 0.934647 240.206C0.934647 239.545 1.20384 238.845 1.54994 238.301C1.85758 237.873 2.54977 237.329 2.93433 237.407C3.39579 237.523 4.01108 238.223 4.04954 238.69C4.16491 242.811 6.62605 244.677 10.087 246.271C14.7017 248.409 19.0472 251.208 23.5464 253.657C25.2769 254.59 27.1228 255.329 28.8533 256.262C30.1608 256.962 31.3529 257.895 32.6219 258.595C35.9291 260.461 39.2363 262.405 42.6588 264.038C43.5817 264.465 45.043 263.921 46.1967 263.649C47.1965 263.377 48.1195 262.832 49.0809 262.444C51.1959 261.511 53.311 260.539 55.4645 259.683C57.6564 258.828 59.9253 258.128 62.1557 257.312C63.0786 256.962 64.0016 256.573 64.9245 256.184C69.4238 254.357 73.8846 252.452 78.4224 250.703C81.6526 249.459 84.9982 248.409 88.2285 247.165C91.1127 246.076 93.9199 244.871 96.7656 243.705C101.073 241.917 105.38 240.128 109.687 238.379C110.725 237.951 111.802 237.679 112.84 237.251C113.994 236.785 114.532 235.93 114.647 234.608C114.763 233.636 115.224 232.664 115.801 231.847C115.993 231.575 117.301 231.575 117.493 231.847C118.07 232.703 118.685 233.752 118.685 234.724C118.801 239.506 118.724 244.327 118.724 249.109C119.031 249.07 119.031 249.07 119.07 249.07ZM5.51084 310.729C5.66466 310.768 5.78003 310.807 5.93385 310.846C5.93385 311.506 5.97231 312.129 5.93385 312.789C5.62621 316.794 8.43346 318.465 11.5868 318.31C16.4706 318.077 21.3545 318.038 26.1999 317.377C29.1609 316.988 32.1605 317.183 35.16 317.183C53.8493 317.144 72.5771 317.144 91.2665 317.105C92.574 317.105 93.8815 316.755 95.1889 316.755C97.8424 316.794 100.457 317.105 103.072 317.027C105.457 316.949 107.879 316.561 110.263 316.211C110.84 316.133 111.84 315.627 111.84 315.355C111.84 314.656 111.494 313.8 110.994 313.334C110.11 312.517 109.033 311.934 107.995 311.312C105.764 309.913 103.457 308.591 101.226 307.23C99.7267 306.297 98.3038 305.286 96.8041 304.431C95.1505 303.498 93.3431 302.759 91.6895 301.787C89.0361 300.232 86.498 298.522 83.8446 296.966C79.8837 294.673 75.8843 292.457 71.9234 290.241C69.2315 288.725 66.6165 286.975 63.7708 285.809C60.8867 284.642 58.2717 282.271 54.5415 284.409C51.119 286.392 47.1581 287.442 43.4664 288.997C40.1207 290.396 36.852 292.029 33.5064 293.429C29.9685 294.906 26.3537 296.15 22.8158 297.627C19.0087 299.221 15.2016 300.932 11.433 302.681C9.93322 303.381 8.12581 304.042 7.27979 305.286C6.20304 306.802 6.04922 308.902 5.51084 310.729Z" fill="black"/>
<path d="M484.281 158.487C488.319 155.843 491.741 153.394 495.356 151.295C499.125 149.079 503.086 147.212 506.97 145.152C510.7 143.169 514.469 141.148 518.16 139.048C521.698 137.027 525.159 134.888 528.697 132.789C529.659 132.206 530.62 131.7 531.581 131.156C533.735 129.912 535.85 128.59 538.042 127.385C542.656 124.897 547.271 122.526 551.886 120.037C553.693 119.065 555.385 117.821 557.231 116.849C561.038 114.867 564.922 113.001 568.691 110.979C570.614 109.968 572.344 108.608 574.228 107.558C576.459 106.314 578.728 105.225 580.997 104.059C581.65 103.709 582.266 103.359 582.881 103.009C585.227 101.726 587.534 100.288 589.957 99.1604C591.341 98.4995 591.879 97.6442 592.072 96.1669C592.226 94.5729 592.725 93.0567 592.995 91.4627C593.148 90.4131 593.687 89.7522 594.61 90.1409C595.264 90.4131 595.994 91.2684 596.148 92.007C596.417 93.2511 596.263 94.5729 596.263 95.8947C596.302 102.037 596.263 108.219 596.379 114.361C596.417 117.199 596.84 120.076 596.84 122.914C596.84 125.869 596.456 128.824 596.417 131.778C596.417 133.8 596.763 135.86 596.994 137.882C597.071 138.465 597.186 139.048 597.225 139.593C597.225 146.046 597.263 152.539 597.186 158.992C597.186 159.964 596.802 161.092 596.225 161.83C595.879 162.297 594.725 162.374 593.994 162.258C593.648 162.219 593.225 161.403 593.148 160.858C592.995 159.964 593.11 159.031 593.11 158.137C593.072 156.271 591.995 155.532 590.38 156.504C587.073 158.448 583.881 160.547 580.574 162.53C578.305 163.891 575.959 165.057 573.652 166.34C568.922 169.061 564.192 171.822 559.423 174.504C554.731 177.148 549.925 179.636 545.233 182.318C542.58 183.835 540.08 185.662 537.465 187.217C535.311 188.461 533.043 189.472 530.889 190.677C528.274 192.115 525.698 193.671 523.121 195.148C519.737 197.092 516.353 199.036 513.007 201.018C508.008 203.934 503.047 206.85 498.087 209.804C493.972 212.254 489.857 214.703 485.781 217.191C484.166 218.163 484.05 219.757 484.012 221.506C484.012 222.673 483.781 223.956 483.281 225.044C482.781 226.172 480.82 226.016 480.128 224.889C479.705 224.189 479.397 223.334 479.397 222.556C479.282 217.308 479.205 212.059 479.167 206.811C479.128 203.973 479.128 201.096 479.128 198.258C479.128 194.72 479.243 191.143 479.09 187.606C478.897 183.096 478.321 178.586 478.167 174.038C478.051 170.228 478.205 166.418 478.397 162.608C478.513 160.081 479.013 157.554 479.167 155.027C479.282 153.511 480.013 153.005 481.359 153.005C482.858 153.005 483.281 153.938 483.435 155.26C483.589 156.193 483.897 157.048 484.281 158.487ZM484.281 186.75C484.204 192.077 484.435 192.193 488.55 189.977C488.78 189.861 488.973 189.705 489.203 189.588C492.164 187.917 495.126 186.245 498.087 184.534C502.278 182.124 506.431 179.636 510.585 177.187C512.584 176.02 514.699 175.048 516.661 173.882C520.468 171.666 524.275 169.333 528.043 167.079C530.005 165.912 531.966 164.746 533.927 163.541C535.235 162.763 536.465 161.869 537.773 161.13C540.195 159.77 542.618 158.448 545.041 157.087C550.386 154.094 555.693 150.984 561.038 148.029C563.692 146.552 566.499 145.424 569.114 143.908C573.69 141.303 578.228 138.582 582.765 135.938C585.034 134.616 587.457 133.489 589.611 131.973C591.918 130.34 592.302 128.085 591.264 125.325C590.457 123.148 589.726 122.603 587.726 123.847C587.034 124.275 586.38 124.819 585.688 125.169C582.15 126.996 578.535 128.668 575.074 130.573C572.113 132.206 569.306 134.111 566.383 135.821C562.076 138.348 557.769 140.837 553.462 143.325C551.309 144.53 549.04 145.58 546.925 146.824C543.887 148.612 541.003 150.556 537.965 152.344C534.235 154.56 530.466 156.698 526.736 158.876C523.275 160.897 519.852 162.958 516.43 165.018C513.661 166.651 510.892 168.284 508.123 169.917C506.778 170.694 505.47 171.472 504.086 172.21C501.778 173.416 499.394 174.504 497.087 175.787C494.318 177.303 491.549 178.742 488.973 180.53C486.704 182.202 483.166 183.057 484.281 186.75Z" fill="black"/>
<path d="M146.911 596.475C147.219 596.553 147.373 596.631 147.565 596.67C148.642 597.059 150.103 597.408 149.68 598.808C149.45 599.586 148.065 600.441 147.142 600.48C140.605 600.752 134.067 600.869 127.53 600.869C114.071 600.907 100.611 600.83 87.1517 600.791C82.2679 600.791 77.4225 600.674 72.5386 600.596C72.0387 600.596 71.385 600.674 71.0389 600.402C70.2313 599.78 69.5776 599.002 68.8854 598.264C69.6929 597.758 70.4236 596.942 71.3081 596.786C73.5385 596.359 75.5382 594.221 76.3073 592.005C76.9995 589.983 78.3454 588.195 79.4222 586.29C80.9219 583.568 82.4217 580.886 83.9214 578.164C86.421 573.655 88.9207 569.106 91.4587 564.596C93.1507 561.603 95.0735 558.726 96.7271 555.693C100.419 548.968 103.918 542.203 107.61 535.477C110.148 530.851 112.878 526.302 115.455 521.676C116.993 518.916 118.339 516.039 119.839 513.24C120.877 511.296 122.069 509.469 123.146 507.564C124.761 504.726 126.261 501.849 127.914 499.011C129.26 496.717 130.722 494.462 132.106 492.168C132.183 492.052 132.298 491.974 132.298 491.857C132.644 488.942 134.76 489.291 136.798 489.291C143.335 489.33 149.873 489.291 156.41 489.291C157.102 489.291 157.794 489.369 158.833 489.408C157.641 491.469 156.602 493.296 155.564 495.045C153.026 499.205 150.449 503.326 147.95 507.486C145.566 511.568 143.335 515.728 140.912 519.81C138.067 524.631 135.029 529.335 132.221 534.156C128.722 540.143 125.376 546.169 121.915 552.195C120.262 555.033 118.454 557.793 116.801 560.631C114.878 563.858 113.032 567.123 111.148 570.389C109.379 573.46 107.61 576.531 105.803 579.564C103.341 583.724 100.803 587.845 98.3422 591.966C97.8039 592.86 97.227 593.754 96.6887 594.687C96.0349 595.853 96.2656 596.553 97.727 596.553C99.842 596.553 101.996 596.748 104.072 596.475C105.072 596.359 106.072 595.542 106.841 594.804C107.648 594.026 108.264 593.015 108.879 592.082C111.186 588.545 113.571 585.084 115.724 581.43C118.262 577.115 120.569 572.644 123.031 568.29C124.223 566.151 125.569 564.13 126.838 562.03C127.799 560.436 128.76 558.804 129.683 557.171C131.106 554.644 132.529 552.078 133.914 549.551C135.221 547.14 136.452 544.73 137.836 542.359C138.605 540.998 139.643 539.754 140.451 538.393C142.22 535.283 143.835 532.134 145.642 529.063C147.681 525.525 149.873 522.026 151.911 518.488C152.834 516.855 153.564 515.145 154.487 513.512C154.987 512.579 155.833 511.84 156.333 510.946C159.063 506.047 161.755 501.11 164.486 496.25C165.178 495.045 166.178 494.034 166.908 492.868C167.524 491.857 167.947 490.769 168.523 489.486C176.791 489.486 185.405 489.486 194.25 489.486C192.75 492.052 191.443 494.384 190.058 496.717C188.366 499.555 186.674 502.393 184.982 505.231C182.252 509.78 179.406 514.25 176.753 518.838C174.83 522.104 173.177 525.525 171.331 528.868C170.485 530.346 169.369 531.667 168.485 533.145C166.408 536.799 164.409 540.492 162.332 544.147C160.679 547.024 158.948 549.823 157.294 552.7C154.987 556.626 152.718 560.553 150.372 564.441C147.642 568.951 144.796 573.382 142.105 577.892C139.028 583.024 136.029 588.195 133.067 593.365C132.568 594.221 132.298 595.581 132.606 596.437C132.914 597.253 135.875 596.553 136.721 595.542C137.605 594.532 138.374 593.443 139.259 592.471C141.374 590.177 142.566 590.138 144.95 592.316C146.604 593.948 146.604 593.948 146.911 596.475Z" fill="black"/>
<path d="M260.163 489.486C271.161 489.486 282.159 489.486 293.196 489.486C293.196 489.563 293.196 489.68 293.196 489.758C292.773 489.797 292.35 489.874 291.927 489.874C288.543 489.952 287.466 491.002 287.466 494.345C287.466 503.404 287.504 512.462 287.427 521.559C287.389 527.624 287.235 533.728 287.081 539.793C287.043 541.425 286.581 543.019 286.505 544.613C286.466 545.546 286.928 546.518 286.928 547.451C287.004 550.834 287.12 554.177 287.043 557.559C286.851 568.989 286.62 580.419 286.389 591.849C286.389 591.966 286.466 592.082 286.505 592.199C287.85 592.354 288.427 591.771 288.85 589.866C289.889 585.512 290.85 581.119 292.081 576.804C292.773 574.315 294.003 572.022 294.811 569.572C295.388 567.862 295.618 565.996 296.08 564.246C296.503 562.73 297.118 561.253 297.58 559.737C298.041 558.143 298.387 556.549 298.81 554.955C299.849 551.028 300.848 547.101 302.002 543.214C302.81 540.57 303.963 538.004 304.771 535.361C305.194 533.961 305.232 532.484 305.617 531.045C306.694 527.158 307.809 523.27 308.963 519.382C310.155 515.378 311.501 511.373 312.616 507.369C313.808 503.209 314.731 499.011 315.923 494.851C316.423 493.14 317.192 491.507 317.961 489.913C318.076 489.641 318.73 489.447 319.115 489.447C320.73 489.408 322.345 489.214 323.922 489.486C324.614 489.602 325.46 490.574 325.691 491.352C326.883 494.773 327.883 498.272 328.959 501.732C330.228 505.814 331.536 509.896 332.689 514.017C333.536 517.011 334.074 520.082 334.881 523.075C335.497 525.291 336.304 527.43 336.997 529.607C337.612 531.59 338.266 533.572 338.804 535.594C339.727 539.015 340.573 542.436 341.496 545.857C342.534 549.745 343.649 553.594 344.765 557.443C345.957 561.642 347.264 565.801 348.418 570C349.302 573.266 349.956 576.57 350.84 579.875C351.533 582.518 352.34 585.162 353.109 587.767C353.648 589.633 354.301 591.499 354.686 593.404C355.186 595.97 355.878 596.631 358.455 596.67C358.916 596.67 359.454 596.514 359.762 596.709C360.416 597.136 360.916 597.719 361.493 598.264C360.954 598.808 360.416 599.391 359.839 599.897C359.685 600.013 359.339 599.974 359.07 599.974C349.61 600.208 340.15 600.441 330.69 600.752C329.267 600.791 328.459 600.363 328.459 598.847C328.421 597.37 329.229 596.825 330.613 596.748C333.574 596.553 333.728 596.164 332.92 593.093C332.074 589.983 331.497 586.795 330.651 583.685C329.959 581.197 328.998 578.786 328.306 576.298C327.383 573.033 326.652 569.689 325.691 566.423C325.037 564.169 324.114 562.03 323.268 559.814C323.191 559.581 322.922 559.387 322.883 559.153C321.768 554.644 320.768 550.095 319.576 545.624C318.384 541.192 317.038 536.799 315.654 532.445C315.577 532.173 314.423 532.017 313.962 532.212C313.577 532.367 313.423 533.145 313.231 533.689C312.308 536.488 311.347 539.287 310.501 542.125C309.962 543.952 309.578 545.819 309.039 547.646C308.616 549.084 307.924 550.445 307.463 551.883C307.117 552.972 306.886 554.06 306.617 555.149C305.848 558.181 305.079 561.175 304.232 564.207C303.771 565.84 303.156 567.395 302.617 568.989C302.194 570.272 301.771 571.516 301.387 572.799C299.772 578.164 298.118 583.49 296.503 588.855C295.926 590.838 295.234 592.782 294.888 594.804C294.811 595.348 295.58 596.32 296.195 596.592C296.964 596.942 298.041 596.553 298.849 596.825C299.733 597.175 301.079 597.914 301.118 598.536C301.233 599.78 300.195 600.713 298.733 600.713C294.042 600.713 289.389 600.791 284.697 600.752C282.697 600.713 280.698 600.285 278.698 600.285C273.237 600.363 267.777 600.557 262.278 600.674C261.778 600.674 261.124 600.713 260.778 600.441C260.163 599.897 259.432 599.158 259.393 598.458C259.393 597.953 260.278 597.136 260.97 596.903C261.701 596.631 262.624 596.825 263.431 596.786C265.7 596.709 266.277 596.164 266.277 593.871C266.239 576.493 266.2 559.153 266.2 541.775C266.2 532.834 266.239 523.892 266.162 514.95C266.162 512.967 265.739 510.985 265.7 509.041C265.662 507.991 266.162 506.903 266.162 505.853C266.239 502.432 266.2 498.972 266.2 495.551C266.2 491.43 264.931 490.069 260.816 489.836C260.586 489.836 260.316 489.758 260.086 489.719C260.124 489.68 260.163 489.602 260.163 489.486Z" fill="black"/>
<path d="M118.993 214.508C118.993 217.541 118.954 220.612 118.993 223.644C119.031 225.277 118.377 226.366 116.762 226.366C115.262 226.366 114.801 225.122 114.878 223.8C114.993 221.817 113.84 220.573 112.571 219.368C105.841 213.148 99.0727 206.966 92.343 200.746C86.6901 195.536 81.0371 190.327 75.3842 185.156C71.3848 181.463 67.3855 177.77 63.2707 174.193C61.6556 172.793 59.9636 171.316 58.0408 170.577C56.541 169.994 54.5413 170.072 52.9647 170.577C47.4655 172.366 42.0433 174.504 36.5827 176.409C31.6604 178.158 26.6611 179.791 21.7388 181.541C17.7395 182.979 13.7786 184.612 9.7792 186.089C8.97164 186.4 8.04871 186.4 7.24114 186.711C5.12609 187.567 4.62617 189.472 4.35698 191.454C4.28007 192.076 4.24162 192.737 4.20316 193.398C4.20316 194.526 3.78016 195.536 2.58804 195.225C1.93429 195.031 1.12673 193.981 1.04982 193.243C-0.411487 183.251 0.0499758 173.182 0.242253 163.113C0.280708 161.791 0.472985 160.469 0.703717 159.186C0.972905 157.826 2.12657 157.903 2.97259 158.214C3.47251 158.409 3.97243 159.225 4.0878 159.847C4.35699 161.169 4.39544 162.53 4.58772 163.852C4.78 165.135 5.93366 165.64 7.43342 164.979C9.97148 163.852 12.4711 162.608 15.0091 161.48C16.1244 161.014 17.3165 160.741 18.4317 160.353C22.8541 158.798 27.2764 157.242 31.6988 155.649C33.5831 154.949 35.3905 154.055 37.2364 153.277C38.8131 152.577 39.0438 151.722 37.8517 150.517C35.9289 148.651 33.8523 146.901 31.8911 145.035C30.0837 143.247 28.3916 141.342 26.5842 139.553C23.6616 136.715 20.739 133.877 17.7395 131.117C14.2785 127.929 10.7021 124.858 7.12578 121.787C6.51049 121.281 5.62601 121.126 4.85691 120.815C4.58772 121.631 4.16471 122.409 4.0878 123.264C3.85706 125.169 3.28024 125.869 1.62665 125.363C1.04982 125.208 0.280708 124.43 0.242253 123.886C0.203798 121.553 0.396076 119.26 0.549898 116.927C0.549898 116.616 0.703717 116.305 0.703717 115.994C0.742173 113.817 0.742175 111.679 0.742175 109.501C0.742175 107.013 0.742175 104.564 0.742175 102.076C0.742175 100.793 0.857542 99.2768 2.39576 99.3157C2.93414 99.3157 3.58788 100.987 3.93398 101.998C4.16471 102.62 4.04934 103.437 3.97243 104.136C3.51096 107.713 5.66447 109.501 8.24099 111.29C10.3176 112.728 12.0481 114.633 13.8939 116.344C18.624 120.776 23.3155 125.324 28.084 129.718C34.0446 135.199 40.1205 140.564 46.0811 146.007C47.8885 147.679 49.5806 148.534 52.1571 147.173C54.6183 145.852 57.4639 145.191 60.1174 144.219C62.7323 143.247 65.3089 142.119 67.9623 141.264C70.4619 140.448 73.0769 139.903 75.6149 139.126C78.2299 138.309 80.8064 137.26 83.4214 136.404C85.7672 135.627 88.1129 134.927 90.4587 134.15C93.1506 133.216 95.804 132.206 98.4959 131.273C99.8419 130.806 101.303 130.612 102.649 130.145C105.841 129.134 109.071 128.201 112.109 126.841C113.186 126.374 113.724 124.702 114.532 123.575C114.916 123.031 115.57 122.02 115.801 122.098C116.608 122.37 117.531 122.914 117.954 123.614C118.339 124.236 118.224 125.247 118.262 126.063C118.454 130.029 118.608 133.994 118.762 137.959C118.762 138.154 118.839 138.387 118.8 138.543C117.224 142.897 119.262 147.251 118.877 151.605C118.8 152.305 118.57 153.199 118.108 153.666C117.608 154.132 116.647 154.404 115.993 154.288C115.532 154.21 114.993 153.394 114.839 152.81C114.493 151.683 114.532 150.361 114.032 149.312C113.801 148.806 112.648 148.262 112.109 148.417C109.763 149.078 107.494 149.972 105.187 150.828C102.803 151.683 100.38 152.499 98.0344 153.394C94.8811 154.56 91.7277 155.804 88.5359 156.97C85.3057 158.176 82.037 159.264 78.8067 160.469C76.9224 161.169 75.115 162.063 73.2691 162.88C72.1539 163.385 71.0772 163.968 69.9235 164.435C68.193 165.212 69.0775 166.262 69.8081 166.923C75.7303 172.56 81.6909 178.158 87.613 183.757C91.9585 187.839 96.3424 191.921 100.726 196.003C104.456 199.463 108.187 202.884 111.955 206.305C113.224 207.472 113.993 207.238 114.57 205.644C114.724 205.217 114.724 204.75 114.763 204.323C114.878 203.04 115.262 201.99 116.801 202.107C118.3 202.223 118.877 203.312 118.916 204.595C119.031 207.899 118.993 211.204 118.993 214.508Z" fill="black"/>
<path d="M462.631 598.069C463.708 597.642 464.669 597.136 465.707 596.864C467.361 596.436 467.938 595.309 466.976 593.871C465.592 591.771 464.054 589.75 462.746 587.611C460.823 584.501 459.093 581.236 457.209 578.125C455.978 576.143 454.555 574.277 453.286 572.333C451.171 569.106 449.094 565.801 447.018 562.536C443.48 557.015 439.942 551.495 436.443 545.974C433.289 541.037 430.174 536.099 427.021 531.162C426.713 530.695 426.175 530.345 425.791 529.957C425.56 530.54 425.098 531.123 425.098 531.706C425.06 542.203 425.137 552.7 425.098 563.197C425.098 564.48 424.637 565.762 424.445 567.045C424.406 567.279 424.521 567.512 424.56 567.745C424.752 568.795 425.098 569.883 425.098 570.933C425.175 578.242 425.137 585.59 425.175 592.899C425.175 596.048 425.714 596.514 428.828 596.748C429.828 596.825 430.79 597.37 431.828 597.719C431.097 600.052 429.713 600.596 427.982 600.596C424.983 600.635 421.945 600.791 418.945 600.674C416.946 600.596 414.908 600.246 412.908 599.858C412.523 599.78 411.985 598.963 412.023 598.497C412.062 597.914 412.523 597.331 412.908 596.825C413.023 596.67 413.408 596.748 413.639 596.709C414.715 596.475 416.446 596.592 416.753 595.97C417.407 594.57 417.446 592.782 417.638 591.188C417.753 590.216 417.638 589.244 417.676 588.272C417.676 587.884 417.753 587.495 417.715 587.106C417.446 577.426 417.061 567.745 416.946 558.104C416.792 542.747 417.138 527.391 416.715 512.034C416.6 508.03 415.907 503.987 415.984 499.944C416.023 498.039 416.407 496.134 416.523 494.229C416.561 493.646 416.254 493.024 416.061 492.402C415.408 490.224 415.984 489.408 418.176 489.369C418.369 489.369 418.561 489.408 418.753 489.369C423.252 488.514 425.637 490.846 427.559 494.656C429.482 498.427 431.982 501.888 434.289 505.425C436.443 508.808 438.673 512.112 440.865 515.494C442.596 518.138 444.326 520.743 446.018 523.386C447.287 525.408 448.441 527.507 449.748 529.49C451.248 531.862 452.902 534.194 454.401 536.566C455.863 538.86 457.209 541.231 458.67 543.564C460.67 546.752 462.669 549.94 464.669 553.127C466.63 556.276 468.553 559.464 470.514 562.613C472.437 565.724 474.475 568.756 476.359 571.905C478.513 575.521 480.474 579.214 482.628 582.83C483.935 585.045 485.512 587.145 486.858 589.322C487.896 591.033 488.665 592.899 489.78 594.531C490.819 596.048 492.203 597.097 494.28 596.825C495.356 596.67 496.51 596.631 497.51 596.981C498.241 597.214 498.74 598.147 499.356 598.73C498.587 599.352 497.894 600.441 497.048 600.557C495.049 600.83 492.972 600.713 490.896 600.713C482.435 600.713 473.975 600.674 465.515 600.791C463.631 600.868 463.323 599.663 462.631 598.069Z" fill="black"/>
<path d="M458.747 5.27236C456.747 5.15573 455.286 5.31124 453.978 4.92247C453.132 4.6892 452.478 3.6784 451.748 3.01749C452.632 2.51209 453.517 1.61792 454.401 1.57904C458.093 1.54016 461.784 1.85118 465.515 1.89006C473.206 1.96781 480.897 1.92893 488.588 1.89006C489.818 1.89006 490.741 2.12332 491.011 3.83391C490.357 4.02829 489.703 4.30043 489.011 4.37819C487.742 4.53369 486.473 4.76695 485.204 4.65032C481.858 4.33931 480.82 6.94407 479.589 9.16006C477.205 13.4754 475.013 17.9074 472.783 22.3005C471.398 25.0219 470.206 27.821 468.822 30.5424C466.707 34.78 464.592 39.0176 462.4 43.2552C460.708 46.5598 458.9 49.8255 457.131 53.0911C455.439 56.2402 453.286 59.1948 452.132 62.5383C450.748 66.5815 447.864 69.7305 446.595 73.8126C445.71 76.6506 443.826 79.1388 442.48 81.8213C440.249 86.1366 438.134 90.5297 435.866 94.8062C434.981 96.5168 433.789 98.0719 432.904 99.7436C431.52 102.348 430.328 105.07 429.02 107.675C427.944 109.852 426.713 111.99 425.675 114.206C425.406 114.75 425.252 115.8 425.559 116.033C426.098 116.5 426.982 116.577 427.713 116.772C428.713 117.005 429.866 116.927 430.636 117.433C431.059 117.705 431.097 119.027 430.905 119.765C430.789 120.193 429.828 120.582 429.213 120.621C421.406 120.854 413.638 121.009 405.832 121.126C402.64 121.165 399.448 121.165 396.256 121.126C393.911 121.087 392.411 119.688 393.295 118.21C393.834 117.316 395.372 116.383 396.372 116.461C399.833 116.811 401.563 115.1 402.871 112.184C403.947 109.774 405.409 107.597 406.678 105.264C408.408 102.076 410.177 98.9272 411.792 95.6615C413.907 91.4239 415.792 87.0308 417.984 82.8321C419.714 79.4498 421.829 76.223 423.598 72.8795C425.136 69.9638 426.329 66.8536 427.867 63.9378C429.136 61.5274 430.789 59.3115 432.058 56.9011C434.097 53.0134 435.866 49.009 437.942 45.1213C440.634 40.0284 443.518 35.0522 446.287 30.037C447.402 27.9766 448.44 25.8772 449.517 23.8167C451.978 19.1126 454.478 14.4085 456.939 9.70434C457.554 8.34364 458.054 6.94407 458.747 5.27236Z" fill="black"/>
<path d="M193.52 525.719C193.135 526.186 192.712 526.614 192.366 527.119C191.251 528.907 189.366 529.646 187.482 527.741C186.867 527.119 186.136 526.536 185.675 525.797C185.367 525.253 185.098 524.242 185.405 523.814C189.097 518.255 192.904 512.773 196.673 507.253C199.634 502.937 202.595 498.583 205.556 494.229C206.018 493.529 206.594 492.868 206.864 492.091C207.902 489.214 210.171 489.175 212.632 489.33C214.593 489.447 216.593 489.408 218.592 489.33C219.785 489.292 220.285 489.758 220.054 490.924C219.515 493.529 218.939 496.134 218.4 498.778C218.323 499.205 218.285 499.672 218.169 500.099C217.477 503.443 216.785 506.825 216.131 510.169C215.747 512.112 215.516 514.095 215.131 516.039C214.593 518.722 213.862 521.326 213.324 524.009C212.863 526.225 212.632 528.441 212.209 530.657C211.671 533.534 211.017 536.411 210.401 539.326C209.978 541.465 209.555 543.564 209.171 545.702C208.556 548.968 207.902 552.195 207.287 555.46C206.902 557.599 206.594 559.776 206.171 561.875C205.402 565.452 204.556 568.989 203.749 572.566C203.633 573.11 203.479 573.694 203.364 574.238C202.749 577.426 202.172 580.653 201.557 583.841C201.134 586.134 200.711 588.467 200.249 590.761C200.018 591.927 199.557 593.093 199.403 594.26C199.211 595.854 199.98 596.709 201.634 596.67C201.826 596.67 202.018 596.67 202.21 596.67C203.556 596.592 204.979 596.709 205.133 598.381C205.325 600.091 203.595 599.975 202.595 600.48C202.287 600.635 201.826 600.558 201.441 600.558C196.827 600.597 192.174 600.635 187.559 600.635C186.444 600.635 185.329 600.208 184.175 600.169C182.637 600.091 181.137 600.247 179.599 600.208C177.599 600.169 175.599 600.091 173.6 599.858C173.254 599.819 172.638 598.847 172.792 598.575C173.1 597.875 173.6 597.136 174.253 596.787C174.869 596.476 175.753 596.709 176.522 596.67C178.522 596.592 179.791 595.232 180.175 593.249C180.637 590.916 181.406 588.622 181.983 586.29C182.444 584.385 182.829 582.441 183.175 580.497C183.636 578.009 183.944 575.443 184.406 572.955C184.675 571.555 185.098 570.234 185.405 568.873C185.982 566.385 186.598 563.935 187.097 561.447C187.867 557.56 188.443 553.672 189.251 549.784C190.174 545.391 191.212 540.998 192.212 536.605C192.904 533.534 193.596 530.423 194.25 527.352C194.327 526.925 194.173 526.419 194.135 525.953C193.904 525.836 193.712 525.797 193.52 525.719Z" fill="black"/>
<circle cx="300.416" cy="301" r="11" fill="black"/>
</svg>
