<svg width="601" height="601" viewBox="0 0 601 601" fill="none" xmlns="http://www.w3.org/2000/svg">
<path d="M65.7391 502.743C64.3547 503.209 63.0088 503.637 61.6244 504.104C59.1248 504.998 56.5867 505.892 54.0871 506.786C51.0492 507.875 48.0496 509.041 45.0116 510.091C43.3196 510.713 41.5507 511.14 39.8586 511.762C37.7051 512.54 35.5901 513.434 33.4366 514.212C31.0523 515.106 28.6681 515.961 26.2454 516.816C24.015 517.633 21.7846 518.488 19.5157 519.266C17.0545 520.16 14.5549 520.937 12.0553 521.831C10.2095 522.492 8.28669 523.114 6.59466 524.125C5.90246 524.553 5.59481 525.836 5.32562 526.808C5.01798 527.974 5.05644 529.257 4.78725 530.462C4.47961 531.862 3.59513 532.095 2.6722 530.968C2.21074 530.423 1.86464 529.607 1.82618 528.907C1.67236 525.991 1.71081 523.076 1.51854 520.16C1.32626 517.477 0.980162 514.795 0.672519 512.112C0.634063 511.723 0.518695 511.296 0.634061 510.946C2.40301 504.726 1.24935 498.389 1.40317 492.091C1.6339 483.693 1.40317 475.257 1.2878 466.82C1.24935 464.915 0.826338 463.01 0.826338 461.106C0.826338 458.928 1.24935 456.712 1.24935 454.535C1.24935 452.242 0.826339 449.948 0.749428 447.615C0.634062 443.339 0.518695 439.062 0.634061 434.786C0.826338 428.41 1.2109 422.073 1.557 415.697C1.63391 414.025 3.05676 412.704 3.86432 413.442C4.7488 414.298 5.09489 415.775 5.5179 417.058C5.71018 417.641 5.40254 418.341 5.47945 418.963C5.63327 420.479 6.59466 420.868 7.78678 420.246C10.3248 418.885 12.786 417.33 15.2856 415.93C17.5545 414.686 19.9387 413.559 22.246 412.393C23.9381 411.498 25.6301 410.604 27.2837 409.671C29.8987 408.233 32.5136 406.833 35.1286 405.395C39.128 403.218 43.1273 400.963 47.1652 398.824C50.0493 397.308 53.0104 395.986 55.8945 394.431C59.4324 392.565 62.855 390.466 66.3929 388.6C70.5076 386.462 74.7762 384.557 78.8909 382.418C81.2367 381.213 83.4286 379.697 85.8129 378.492C89.9276 376.354 94.1577 374.371 98.3109 372.31C100.58 371.183 102.849 370.017 105.118 368.85C107.156 367.762 109.194 366.634 111.232 365.546C113.847 364.146 115.77 362.358 115.5 359.014C115.385 357.576 115.923 356.254 117.731 356.332C119.5 356.371 119.615 357.693 119.615 359.092C119.615 368.345 119.654 377.636 119.654 386.889C119.654 398.513 119.615 410.138 119.654 421.801C119.654 424.172 120.115 426.544 120.192 428.876C120.23 430.043 119.654 431.248 119.654 432.453C119.615 440.54 119.615 448.665 119.615 456.751C119.615 457.607 119.654 458.462 119.461 459.278C119.115 460.756 117.423 461.339 116.27 460.406C115.308 459.628 115.424 458.851 116.539 458.306C116.885 458.151 117.154 457.762 117.385 457.179C115.693 458.19 114.77 457.373 113.962 455.779C110.732 457.607 107.656 459.434 104.502 461.106C99.6568 463.671 94.6961 466.121 89.8507 468.725C85.1976 471.214 80.6214 473.857 75.9683 476.306C71.1229 478.833 66.2006 481.166 61.3168 483.654C58.125 485.287 55.0101 487.037 51.8183 488.708C48.1265 490.652 44.4348 492.596 40.7431 494.54C36.5899 496.717 32.5136 498.972 28.322 501.071C24.438 503.015 20.4002 504.764 16.5162 506.708C13.209 508.341 9.94028 510.052 6.71002 511.801C5.5179 512.423 5.05644 515.572 6.01782 516.505C6.36392 516.855 7.20994 517.127 7.63295 516.933C10.9401 515.572 14.2088 514.056 17.516 512.695C18.6697 512.19 19.9002 511.918 21.0924 511.529C23.3228 510.751 25.5532 510.052 27.7452 509.196C30.7062 508.069 33.6288 506.864 36.5515 505.697C38.8588 504.803 41.1276 503.87 43.4734 503.015C46.7037 501.81 49.9724 500.682 53.1642 499.438C57.0482 497.922 60.8937 496.25 64.8162 494.734C67.162 493.84 69.5847 493.218 71.9689 492.44C74.0071 491.741 76.0067 491.002 78.0064 490.186C81.0444 488.98 84.0439 487.736 87.0819 486.492C89.0816 485.676 91.0428 484.743 93.081 484.004C94.8499 483.343 96.6958 482.993 98.4647 482.332C100.234 481.71 101.964 480.855 103.733 480.194C107.194 478.911 110.655 477.667 114.116 476.384C115.001 476.073 115.847 475.49 116.731 475.412C117.577 475.335 119.077 475.607 119.231 476.073C119.538 476.967 119.423 478.328 118.923 479.144C117.962 480.7 116.693 482.099 115.385 483.343C108.386 489.836 101.272 496.25 94.2731 502.743C92.0811 504.764 90.0045 506.98 87.8126 509.041C84.8515 511.879 81.852 514.717 78.8524 517.516C74.1224 521.909 69.3924 526.302 64.6624 530.657C58.2788 536.527 51.8952 542.32 45.55 548.19C39.128 554.138 32.7059 560.086 26.2838 566.035C23.1305 568.95 20.0156 571.866 16.8238 574.743C13.9396 577.387 11.1324 580.069 8.17133 582.557C6.47929 583.996 5.40254 585.473 5.74864 587.806C5.864 588.544 5.90246 589.4 5.71018 590.138C5.55636 590.722 5.01798 591.499 4.55652 591.538C4.05659 591.577 3.28749 591.033 2.97985 590.527C2.6722 590.061 2.6722 589.283 2.6722 588.661C2.55683 579.136 2.47992 569.611 2.40301 560.086C2.40301 557.559 2.40301 555.032 2.63374 552.505C2.6722 551.845 3.44131 551.261 3.90277 550.639C4.51806 551.261 5.13335 551.883 5.74864 552.505C5.78709 552.544 5.74864 552.622 5.74864 552.7C6.01782 553.594 6.32547 554.488 6.63311 555.382C7.5945 554.916 8.70971 554.644 9.51727 553.944C14.478 549.706 19.4388 545.43 24.3226 541.076C28.6296 537.227 32.7444 533.222 37.0129 529.335C40.2816 526.38 43.6657 523.581 46.9344 520.626C50.0878 517.788 53.0873 514.834 56.2406 512.034C58.8556 509.702 61.5859 507.564 64.2394 505.27C64.97 504.648 65.6238 503.87 66.2775 503.17C66.0468 503.17 65.8929 502.937 65.7391 502.743ZM7.74832 454.108C10.4017 452.825 12.9398 451.697 15.401 450.375C17.6698 449.17 19.7849 447.732 22.0537 446.488C27.6298 443.416 33.1289 440.151 38.8588 437.507C42.9735 435.602 46.5114 432.764 50.78 431.092C55.2792 429.304 59.1632 426 63.4318 423.55C67.0466 421.49 70.7768 419.701 74.4685 417.758C75.776 417.058 77.0066 416.203 78.3141 415.542C80.6598 414.414 83.121 413.559 85.3514 412.276C90.9659 409.166 96.3881 405.706 102.31 403.062C105.771 401.507 108.963 399.252 112.078 397.075C114.155 395.637 115.5 392.177 113.462 390.272C113.116 389.961 112.386 389.611 112.078 389.766C109.924 390.777 107.848 391.943 105.771 393.071C100.387 396.025 95.0037 399.058 89.5815 402.012C86.6589 403.606 83.6594 405.084 80.6983 406.6C80.1215 406.872 79.6215 407.261 79.0447 407.533C75.1607 409.399 71.2383 411.226 67.3927 413.17C65.2777 414.259 63.3164 415.58 61.2014 416.708C58.8172 417.991 56.3175 419.118 53.8949 420.362C51.203 421.762 48.5495 423.239 45.8577 424.678C44.3964 425.455 42.8581 426.194 41.3968 426.971C39.7048 427.866 38.0897 428.838 36.3976 429.654C33.3212 431.131 30.1678 432.375 27.1683 433.892C22.2076 436.419 17.3622 439.14 12.4399 441.745C10.9017 442.561 9.28654 443.183 7.78678 444.038C5.32563 445.477 5.59481 447.926 5.55636 450.298C5.59481 452.203 6.32547 453.408 7.74832 454.108ZM5.71018 482.294C5.71018 483.849 5.63327 485.015 5.74864 486.181C5.82555 487.114 6.28701 487.814 7.44067 487.231C9.70954 486.065 12.0169 484.859 14.2857 483.693C17.5929 481.982 20.8616 480.272 24.1688 478.522C29.2065 475.879 34.2441 473.313 39.2818 470.63C40.9354 469.736 42.4736 468.57 44.1272 467.676C48.3957 465.421 52.7412 463.244 56.9713 460.989C58.9325 459.939 60.7399 458.656 62.7012 457.645C64.7393 456.596 66.9697 455.857 69.0463 454.807C71.5074 453.524 73.7763 452.008 76.2375 450.686C80.0445 448.626 83.9286 446.721 87.7356 444.699C90.2737 443.339 92.6964 441.861 95.2345 440.501C98.4263 438.829 101.695 437.313 104.887 435.641C106.771 434.669 108.463 433.231 110.424 432.453C114.308 430.859 114.885 430.548 114.693 426.466C114.654 425.883 114.347 424.95 114.039 424.872C113.309 424.717 112.462 424.911 111.693 425.105C111.232 425.222 110.847 425.65 110.424 425.805C108.578 426.583 106.656 427.166 104.925 428.099C99.5799 430.976 94.3115 434.008 88.9662 436.885C86.3128 438.324 83.544 439.529 80.8521 440.851C80.3906 441.084 80.0061 441.434 79.5831 441.667C75.4684 443.611 71.2767 445.399 67.2004 447.46C63.3549 449.365 59.6247 451.581 55.7792 453.563C50.0878 456.479 44.3579 459.278 38.6665 462.116C35.7054 463.594 32.7444 465.11 29.7833 466.548C25.7455 468.492 21.6692 470.319 17.6314 472.263C15.2471 473.43 13.0167 474.829 10.594 475.879C7.36377 477.162 4.36424 478.328 5.71018 482.294Z" fill="black"/>
<path d="M593.848 551.65C593.656 550.329 593.617 549.007 593.233 547.84C592.387 545.002 589.541 544.341 587.426 542.981C584.58 541.192 581.581 539.715 578.581 538.16C576.505 537.071 574.39 536.177 572.313 535.089C567.737 532.678 563.237 530.151 558.661 527.741C555.508 526.069 552.201 524.631 549.047 522.92C547.009 521.832 545.163 520.432 543.164 519.266C541.587 518.372 539.895 517.711 538.318 516.855C536.511 515.922 534.78 514.873 532.935 513.978C531.127 513.084 529.204 512.385 527.397 511.451C525.051 510.246 522.821 508.808 520.475 507.564C518.552 506.553 516.553 505.775 514.668 504.687C510.861 502.549 507.131 500.216 503.285 498.078C500.517 496.523 497.632 495.201 494.864 493.685C492.018 492.13 489.211 490.497 486.365 488.903C485.173 488.242 484.211 488.747 483.904 490.186C483.635 491.508 483.25 492.868 481.558 492.635C479.943 492.402 479.789 491.158 479.751 489.758C479.712 488.164 479.289 486.57 479.289 485.015C479.289 483.071 479.558 481.166 479.712 479.222C479.712 479.145 479.751 479.106 479.751 479.028C479.635 476.89 479.443 474.752 479.366 472.613C479.328 471.486 479.597 470.358 479.597 469.27C479.674 455.546 479.751 441.823 479.828 428.099C479.866 418.38 479.828 408.661 479.943 398.98C479.981 396.492 480.558 394.004 480.52 391.555C480.481 387.239 479.943 382.924 480.02 378.609C480.135 371.883 480.597 365.196 480.981 358.47C481.02 357.654 481.481 356.721 481.981 356.06C482.712 355.088 484.404 355.321 484.827 356.488C485.25 357.537 485.634 358.665 485.673 359.792C485.788 361.775 486.557 362.902 488.48 363.796C492.133 365.507 495.479 367.801 499.017 369.745C501.516 371.105 504.131 372.233 506.631 373.555C509.054 374.876 511.361 376.393 513.745 377.753C518.437 380.358 523.167 382.885 527.858 385.49C531.858 387.706 535.819 390.077 539.857 392.293C544.279 394.743 548.74 397.075 553.124 399.524C558.161 402.324 563.16 405.278 568.198 408.077C571.198 409.749 574.351 411.188 577.351 412.82C579.658 414.064 581.85 415.503 584.157 416.786C586.887 418.341 589.618 419.935 592.387 421.451C594.463 422.579 595.463 421.918 595.54 419.507C595.54 419.196 595.463 418.807 595.578 418.535C596.04 417.641 596.386 416.475 597.155 415.969C597.617 415.658 598.77 416.397 599.578 416.669C599.386 416.786 599.155 416.902 598.963 417.019C598.963 418.846 598.886 420.674 599.001 422.501C599.155 425.067 599.962 427.71 599.539 430.121C598.77 434.358 598.963 438.596 598.924 442.795C598.77 457.218 598.847 471.68 598.616 486.104C598.501 494.89 597.924 503.637 597.655 512.385C597.309 523.192 597.078 534.039 596.809 544.847C596.771 546.402 596.809 547.957 596.655 549.512C596.501 550.951 596.001 552.272 593.848 551.65ZM593.656 483.654C594.04 481.905 593.617 480.428 591.925 479.495C591.195 479.067 590.541 478.562 589.81 478.173C586.811 476.423 583.811 474.635 580.773 472.963C577.504 471.175 574.12 469.581 570.813 467.831C568.929 466.86 567.16 465.693 565.276 464.721C560.007 461.922 554.739 459.123 549.47 456.324C547.163 455.08 544.856 453.875 542.587 452.592C540.818 451.581 539.087 450.492 537.318 449.404C536.895 449.132 536.472 448.898 536.011 448.665C531.089 446.06 526.166 443.494 521.283 440.812C519.783 439.995 518.552 438.79 517.052 437.974C514.399 436.497 511.669 435.175 509.015 433.697C504.439 431.17 499.863 428.604 495.325 426.039C492.787 424.6 490.287 423.045 487.749 421.684C485.942 420.712 484.596 421.451 484.404 423.434C484.25 425.106 484.135 426.816 484.327 428.449C484.442 429.46 484.865 430.82 485.596 431.287C488.595 433.192 491.787 434.825 494.941 436.535C499.824 439.179 504.747 441.784 509.669 444.427C510.823 445.049 511.938 445.788 513.053 446.449C515.283 447.732 517.514 448.937 519.744 450.22C521.052 450.959 522.282 451.814 523.628 452.475C526.551 453.913 529.589 455.158 532.473 456.713C535.126 458.112 537.511 459.939 540.164 461.339C543.74 463.244 547.471 464.838 551.047 466.743C555.892 469.309 560.622 472.108 565.429 474.752C570.236 477.395 575.082 480.039 579.889 482.644C583.157 484.432 586.465 486.181 589.81 487.853C590.349 488.125 591.195 488.009 591.848 487.853C593.925 487.231 593.771 485.443 593.656 483.654ZM486.288 455.818C484.019 457.101 483.904 457.101 484.211 461.572C484.288 462.622 484.981 463.944 485.788 464.527C488.48 466.354 491.364 467.948 494.21 469.581C500.593 473.196 506.939 476.812 513.361 480.35C517.129 482.449 520.975 484.432 524.82 486.415C528.935 488.592 533.088 490.73 537.203 492.946C539.895 494.423 542.548 496.017 545.24 497.495C551.201 500.721 557.161 503.948 563.16 507.136C566.083 508.691 569.083 510.207 572.044 511.685C573.543 512.462 575.197 513.007 576.581 513.94C580.85 516.778 585.08 519.693 590.272 520.588C590.656 520.665 590.925 521.365 591.271 521.365C591.81 521.365 592.733 521.171 592.848 520.821C593.271 519.732 593.54 518.527 593.617 517.361C593.656 516.544 593.348 515.65 593.079 514.834C592.464 512.89 591.156 511.879 589.233 511.14C587.118 510.363 585.272 508.924 583.273 507.797C580.35 506.125 577.389 504.531 574.428 502.899C573.659 502.471 572.89 502.082 572.121 501.732C568.506 500.022 564.814 498.428 561.238 496.562C557.931 494.812 554.816 492.713 551.547 490.924C547.778 488.864 543.894 487.037 540.049 485.054C536.665 483.304 533.281 481.555 529.935 479.767C527.512 478.484 525.167 477.045 522.744 475.723C520.936 474.713 519.129 473.741 517.283 472.808C514.822 471.564 512.322 470.436 509.9 469.114C507.169 467.637 504.516 466.004 501.824 464.488C496.633 461.572 491.441 458.695 486.288 455.818ZM529.051 410.021C529.012 410.216 528.974 410.41 528.974 410.604C524.551 408.155 520.167 405.667 515.706 403.296C511.938 401.313 507.977 399.68 504.324 397.542C501.286 395.753 498.44 393.615 495.094 392.293C492.479 391.244 490.211 389.378 487.749 387.9C486.557 387.2 485.211 387.9 485.058 389.3C484.942 390.388 485.134 391.516 485.019 392.604C484.711 395.131 486.173 396.414 488.134 397.464C490.211 398.591 492.172 399.835 494.21 401.041C494.479 401.196 494.787 401.313 495.056 401.468C498.132 403.062 501.247 404.617 504.324 406.25C507.169 407.766 509.938 409.477 512.822 410.993C514.707 412.004 516.783 412.665 518.629 413.676C521.129 415.036 523.513 416.591 525.936 418.069C527.781 419.157 529.589 420.285 531.512 421.296C533.396 422.268 535.396 423.006 537.203 424.056C541.51 426.466 545.74 429.071 550.086 431.404C554.739 433.931 559.507 436.186 564.199 438.674C568.352 440.89 572.39 443.3 576.505 445.594C578.889 446.916 581.311 448.16 583.696 449.443C586.041 450.726 588.31 452.125 590.733 453.214C592.771 454.147 594.617 452.786 594.694 450.57C594.809 447.732 594.002 445.672 591.079 444.35C587.695 442.795 584.619 440.501 581.311 438.713C577.043 436.38 572.697 434.242 568.39 431.987C564.506 429.926 560.661 427.866 556.815 425.766C556.162 425.417 555.585 424.95 554.969 424.6C552.278 423.045 549.547 421.49 546.817 419.974C545.356 419.157 543.856 418.496 542.395 417.68C541.01 416.902 539.51 416.203 538.357 415.153C537.126 413.948 536.28 412.354 535.165 410.993C534.28 409.866 533.127 409.399 531.435 410.255C532.242 410.799 532.934 411.149 533.434 411.654C533.896 412.121 534.165 412.743 534.511 413.326C534.357 413.442 534.242 413.52 534.088 413.637C532.819 412.82 531.55 412.043 530.704 411.537C530.704 410.293 530.704 409.594 530.704 408.894C530.127 409.244 529.589 409.632 529.051 410.021Z" fill="black"/>
<path d="M306.201 1.07349C310.047 1.07349 313.892 1.07349 317.738 1.07349C325.89 1.11236 334.081 1.07349 342.234 1.229C349.694 1.34563 357.155 1.69552 364.615 1.88991C365.538 1.92878 366.23 2.00654 366.23 3.2506C366.192 4.33916 366.038 5.19446 364.692 5.19446C363.654 5.19446 362.654 5.23333 361.615 5.23333C359.5 5.27221 358.501 6.28301 358.462 8.46013C358.462 9.62644 358.539 10.7927 358.577 11.9591C358.616 13.9418 358.539 15.8856 358.616 17.8684C358.693 19.9677 359.077 22.0671 359.077 24.1665C359.193 47.8815 359.27 71.5965 359.308 95.3115C359.308 100.793 359.231 106.275 359.347 111.756C359.423 114.983 360.692 117.083 364.23 116.927C364.846 116.888 365.653 117.005 365.999 117.394C366.538 118.016 367.191 119.337 366.961 119.61C366.307 120.348 365.269 121.048 364.307 121.126C361.654 121.398 358.924 121.281 356.232 121.398C351.271 121.592 346.31 121.903 341.349 122.059C337.581 122.176 333.774 122.137 330.005 122.059C326.929 121.981 323.891 121.592 320.814 121.553C318.891 121.515 316.969 121.826 315.046 121.981C314.277 122.02 313.508 122.098 312.739 122.059C308.662 121.942 304.624 121.787 300.548 121.709C294.28 121.592 288.012 121.515 281.743 121.437C280.359 121.437 279.129 120.698 279.129 119.493C279.09 118.288 279.975 117.199 281.59 117.044C283.782 116.849 284.512 115.333 283.551 113.35C281.32 108.763 279.167 104.137 276.975 99.5491C274.668 94.6894 272.36 89.8687 270.091 85.009C269.707 84.2315 269.553 83.2596 269.015 82.6375C267.938 81.3546 266.861 81.5879 266.092 83.1041C265.131 85.009 264.169 86.9529 263.208 88.8579C260.785 93.6397 258.286 98.3828 255.901 103.204C255.017 104.914 254.363 106.741 253.556 108.53C252.748 110.318 251.941 112.067 251.095 113.856C250.056 116.033 250.595 116.888 253.056 117.083C253.979 117.16 255.055 116.849 255.325 118.288C255.555 119.532 255.171 120.426 254.171 121.087C253.863 121.281 253.479 121.359 253.094 121.359C248.21 121.32 243.365 121.32 238.481 121.204C237.674 121.204 236.789 120.931 236.135 120.543C235.674 120.271 235.212 119.493 235.251 118.949C235.289 118.327 235.712 117.471 236.212 117.16C237.02 116.694 238.058 116.266 238.943 116.383C242.134 116.81 243.057 114.283 244.096 112.301C246.018 108.53 247.557 104.564 249.364 100.715C250.479 98.3439 251.748 96.0501 252.902 93.7175C255.132 89.2078 257.363 84.698 259.555 80.1883C261.054 77.117 262.785 74.0846 263.785 70.8189C264.246 69.3416 263.477 67.32 262.9 65.6872C261.785 62.4992 260.401 59.4279 259.132 56.2789C257.44 52.1191 255.825 47.9592 254.056 43.8771C252.902 41.1169 251.441 38.5121 250.325 35.7518C249.21 33.0693 248.364 30.309 247.287 27.5876C245.826 23.8943 244.211 20.2399 242.75 16.5466C241.788 14.0973 240.904 11.648 240.212 9.12103C239.519 6.67178 237.904 5.19446 235.328 5.19446C234.828 5.19446 234.289 5.15558 233.79 5.19446C232.597 5.23333 232.213 4.57242 232.174 3.52274C232.136 2.35643 232.636 1.8899 233.79 1.92878C237.058 1.92878 240.327 1.96766 243.596 1.85103C250.172 1.69552 256.786 1.42338 263.362 1.26787C264.092 1.26787 264.938 1.42338 265.515 1.77327C266.092 2.12317 266.9 3.09509 266.746 3.40611C266.4 4.1059 265.631 4.65018 264.9 5.1167C264.592 5.31109 264.016 5.15558 263.593 5.19446C261.247 5.34996 260.901 6.28301 261.977 8.38237C263.208 10.7928 264.054 13.3975 265.169 15.8468C266.361 18.3738 267.746 20.7453 268.938 23.2723C269.745 24.9829 270.361 26.7712 271.13 28.4818C272.283 31.0866 273.476 33.6525 274.591 36.2572C275.168 37.579 275.514 39.0175 276.167 40.3004C277.283 42.5164 278.59 42.5553 279.782 40.3004C281.167 37.6568 282.397 34.9743 283.743 32.2918C285.32 29.1427 286.973 26.0326 288.512 22.8835C289.934 20.0066 291.242 17.0908 292.626 14.2139C293.28 12.8532 293.972 11.4925 294.78 10.2485C296.587 7.4882 295.895 5.89424 292.742 5.15558C292.05 5.00007 291.088 3.83376 291.127 3.2506C291.242 1.96766 292.242 1.19012 293.703 1.19012C297.856 1.229 302.048 1.19012 306.201 1.19012C306.201 1.11236 306.201 1.11236 306.201 1.07349ZM310.585 11.8424C310.739 11.8424 310.893 11.8424 311.047 11.8424C310.816 10.6372 310.7 9.39318 310.316 8.26574C309.739 6.55515 306.932 5.50547 305.317 6.1275C302.663 7.13831 301.971 9.70419 300.933 11.8813C298.702 16.4299 296.895 21.1729 294.703 25.7604C292.165 31.0866 289.473 36.335 286.858 41.5834C285.512 44.2659 284.435 47.065 282.859 49.592C281.359 51.9635 281.59 54.024 282.705 56.3955C284.551 60.361 286.281 64.3653 287.973 68.4085C289.435 71.9852 290.704 75.6008 292.203 79.1775C294.011 83.454 295.972 87.6916 297.856 91.968C299.202 95.0004 300.471 98.1106 301.817 101.143C302.394 102.465 303.202 103.67 303.74 105.031C305.124 108.413 306.432 111.834 307.662 115.294C308.162 116.733 309.278 116.461 309.931 115.994C310.431 115.644 310.585 114.517 310.585 113.739C310.585 107.558 310.431 101.337 310.431 95.156C310.431 87.6527 310.585 80.1494 310.585 72.6461C310.624 52.3134 310.585 32.0974 310.585 11.8424ZM338.235 63.5878C338.273 63.5878 338.311 63.5878 338.35 63.5878C338.35 52.1968 338.35 40.8058 338.35 29.4149C338.35 23.1557 338.388 16.8576 338.158 10.5984C338.081 8.69339 337.696 6.43852 335.812 5.42771C332.582 3.756 329.467 5.89424 329.582 9.58756C329.774 17.5962 330.197 25.6049 330.274 33.5747C330.467 49.4365 330.505 65.2984 330.582 81.1602C330.62 91.4626 330.582 101.765 330.697 112.029C330.697 113.389 331.197 115.1 332.12 115.994C333.735 117.51 335.927 116.81 337.619 115.877C338.235 115.528 338.235 113.817 338.235 112.728C338.273 96.3223 338.235 79.955 338.235 63.5878Z" fill="black"/>
<path d="M599.694 264.932C599.963 268.081 600.386 271.191 600.501 274.34C600.578 276.867 600.155 279.394 600.155 281.921C600.155 283.982 600.501 286.003 600.578 288.064C600.616 288.958 600.232 289.891 600.193 290.824C600.155 291.951 600.27 293.118 600.309 294.245C600.347 295.917 600.386 297.55 600.424 299.221C600.463 300.038 600.616 300.854 600.578 301.632C600.463 303.498 600.155 305.325 600.117 307.152C600.001 310.651 600.001 314.111 600.001 317.61C599.963 327.563 599.886 337.554 599.924 347.507C599.924 349.062 599.271 350.15 597.886 350.189C596.348 350.228 595.463 349.14 595.733 347.507C596.194 344.397 594.117 343.658 591.695 343.619C589.118 343.619 586.58 343.58 584.004 343.697C581.85 343.813 579.697 344.202 577.543 344.319C576.505 344.358 575.467 344.047 574.428 343.891C574.159 343.852 573.928 343.775 573.659 343.775C570.775 343.969 567.852 344.28 564.968 344.358C557.739 344.474 550.509 344.436 543.279 344.436C531.204 344.436 519.129 344.474 507.054 344.474C500.94 344.474 494.826 344.474 488.75 344.474C486.865 344.474 485.135 346.263 485.096 348.207C485.058 349.412 485.096 350.617 483.443 350.656C481.828 350.695 481.289 349.606 480.982 348.245C480.674 346.768 480.328 345.33 480.02 343.852C479.982 343.736 479.943 343.58 479.982 343.464C480.405 339.576 479.559 335.61 480.02 331.762C481.289 321.343 480.789 310.923 480.712 300.504C480.674 294.867 481.251 289.308 481.02 283.671C480.789 277.995 480.866 272.28 481.02 266.565C481.097 263.493 481.52 260.422 481.943 257.39C482.02 256.846 482.981 255.99 483.52 255.99C484.289 256.029 485.173 256.573 485.827 257.118C486.135 257.39 485.981 258.245 486.058 258.789C486.288 260.5 487.98 262.094 489.673 262.055C495.056 261.9 500.402 261.666 505.785 261.55C507.823 261.511 509.862 261.705 511.9 261.783C512.169 261.783 512.4 261.822 512.669 261.822C514.938 261.783 517.168 261.744 519.437 261.666C524.667 261.511 529.897 261.277 535.127 261.2C536.819 261.161 538.511 261.589 540.241 261.705C541.626 261.822 543.087 261.977 544.472 261.783C548.009 261.239 551.509 261.316 555.047 261.55C560.546 261.9 566.045 261.977 571.544 262.055C578.928 262.133 586.273 262.016 593.656 262.133C595.31 262.172 595.963 261.627 596.156 260.033C596.233 259.139 596.694 258.284 596.732 257.39C596.809 255.99 597.617 255.912 598.655 255.951C599.886 255.99 600.117 256.69 600.078 257.74C600.04 260.072 600.078 262.405 600.078 264.738C599.809 264.932 599.77 264.932 599.694 264.932ZM552.509 293.273C554.162 293.273 555.854 293.273 557.508 293.273C568.468 293.273 579.389 293.312 590.349 293.196C591.387 293.196 592.848 292.651 593.425 291.835C594.771 289.891 592.079 284.332 589.234 284.565C587.965 284.681 586.696 284.565 585.388 284.448C581.619 284.176 577.889 283.904 574.121 283.593C568.852 283.126 563.622 284.098 558.354 283.632C554.047 283.243 549.663 283.515 545.279 283.593C543.779 283.632 542.28 283.982 540.78 283.982C539.588 283.982 538.396 283.632 537.203 283.593C532.397 283.554 527.59 283.476 522.783 283.593C520.321 283.671 517.899 284.176 515.438 284.409C514.63 284.487 513.823 284.254 513.015 284.098C512.284 283.943 511.554 283.593 510.823 283.593C503.786 283.554 496.748 283.554 489.673 283.554C487.134 283.554 485.904 284.876 485.865 287.442C485.865 288.491 485.75 289.541 485.942 290.552C486.096 291.329 486.481 292.262 487.058 292.768C489.442 294.828 492.249 294.362 495.018 293.895C496.095 293.701 497.248 293.701 498.363 293.74C501.209 293.856 504.055 294.012 506.901 294.167C507.016 294.167 507.131 294.09 507.285 294.051C508.708 293.779 510.131 293.39 511.592 293.312C513.938 293.196 516.322 293.273 518.668 293.273C529.974 293.273 541.241 293.273 552.509 293.273ZM583.312 324.375C583.312 324.297 583.312 324.219 583.312 324.142C585.696 324.142 588.042 324.181 590.426 324.142C592.118 324.103 593.656 322.548 593.694 320.837C593.733 319.982 593.694 319.165 593.694 318.31C593.656 316.327 592.156 314.656 590.195 314.656C585.273 314.578 580.35 314.539 575.39 314.539C567.66 314.5 559.892 314.461 552.163 314.461C548.317 314.461 544.433 314.5 540.588 314.422C537.55 314.384 534.512 313.956 531.474 314.111C526.59 314.345 521.706 315.044 516.822 313.917C516.207 313.762 515.553 313.917 514.899 313.956C512.938 314.111 510.977 314.461 509.016 314.461C505.439 314.422 501.901 314.111 498.325 314.111C495.133 314.111 491.941 314.422 488.788 314.539C487.058 314.578 486.212 315.666 485.981 317.144C485.75 318.543 486.019 319.982 485.865 321.381C485.712 323.247 486.75 323.947 488.288 324.219C489.211 324.375 490.211 324.297 491.172 324.258C496.325 324.064 501.478 323.792 506.631 323.675C510.746 323.597 514.822 323.636 518.937 323.675C520.591 323.714 522.206 324.025 523.859 324.025C525.359 324.025 526.897 323.636 528.397 323.675C531.704 323.753 535.011 324.142 538.319 324.181C548.356 324.258 558.431 324.258 568.468 324.219C570.314 324.219 572.159 323.753 573.967 323.792C577.082 323.792 580.197 324.142 583.312 324.375Z" fill="black"/>
<path d="M136.305 39.8728C136.92 38.3566 137.651 36.8793 138.074 35.3242C138.843 32.6028 139.42 29.8037 140.035 27.0434C140.343 25.6827 140.651 24.322 140.997 22.9224C141.612 20.3954 142.343 17.9462 142.842 15.3803C143.381 12.62 143.765 9.78199 144.112 6.98285C144.342 5.15562 143.112 4.53359 141.535 4.37808C141.074 4.33921 140.651 4.37808 140.189 4.37808C138.997 4.41696 138.112 4.30033 138.074 2.6675C138.074 1.07354 138.843 0.87915 140.112 0.87915C153.264 0.918027 166.377 0.956903 179.529 0.956903C180.606 0.956903 181.721 0.91803 182.798 0.91803C183.874 0.91803 184.797 1.11242 185.028 2.47311C185.297 3.98932 184.297 4.45584 183.259 4.72798C182.336 5.00012 181.375 5.00012 180.413 5.03899C178.837 5.11675 178.529 6.16643 179.029 7.29386C180.144 9.89863 181.49 12.4256 182.644 15.0304C183.028 15.8857 183.144 16.8576 183.49 17.7518C184.99 21.4451 186.605 25.0996 188.105 28.8318C190.066 33.6914 191.95 38.5899 193.95 43.4495C195.219 46.5597 196.68 49.5921 198.026 52.6634C199.603 56.279 201.141 59.9334 202.679 63.5878C204.217 67.2034 205.833 70.819 207.371 74.4734C208.14 76.2617 208.755 78.1279 209.486 79.9551C210.639 82.7542 211.793 85.5534 213.024 88.3525C214.793 92.4346 216.677 96.4389 218.369 100.521C219.523 103.32 220.484 106.236 221.522 109.113C222.215 110.94 222.753 112.845 223.676 114.556C224.06 115.294 225.137 115.839 226.022 116.111C227.675 116.577 229.406 116.655 231.021 117.199C231.598 117.394 232.213 118.327 232.328 118.988C232.405 119.415 231.675 120.271 231.136 120.465C230.021 120.893 228.79 121.165 227.637 121.204C220.446 121.32 213.293 121.359 206.102 121.398C205.256 121.398 204.371 121.087 203.525 120.893C203.294 120.854 203.025 120.62 202.833 120.659C196.834 122.176 190.796 121.009 184.759 121.242C178.375 121.476 171.953 121.32 165.531 121.281C165.031 121.281 164.493 121.242 164.031 121.087C161.801 120.271 161.493 119.493 162.955 117.666C164.224 116.033 163.762 114.711 162.724 113.35C159.071 108.607 155.379 103.864 151.726 99.1215C149.418 96.1279 147.111 93.1733 144.804 90.2186C142.958 87.886 141.112 85.5534 139.266 83.2596C138.42 82.1711 137.689 82.1711 137.228 83.5318C136.574 85.5922 135.959 87.6527 135.382 89.7521C135.074 90.9184 134.767 92.1236 134.536 93.2899C133.805 97.1776 133.113 101.104 132.344 104.992C131.883 107.325 131.19 109.579 130.729 111.873C130.498 112.923 130.421 114.05 130.498 115.139C130.537 115.489 131.152 115.916 131.613 116.15C132.383 116.577 133.421 116.694 133.959 117.277C134.421 117.782 134.536 118.832 134.421 119.571C134.382 119.921 133.536 120.348 132.998 120.426C130.229 120.737 127.422 121.048 124.615 121.087C123.115 121.126 121.577 120.776 120.115 120.387C119.731 120.271 119.192 119.415 119.269 118.988C119.423 118.016 119.808 117.044 120.308 116.188C120.846 115.294 122.038 114.672 122.269 113.739C123.346 109.385 124.345 105.031 125.153 100.599C125.961 96.2057 126.499 91.7348 127.268 87.3028C127.73 84.6203 128.306 81.9378 128.883 79.2942C129.306 77.2337 129.96 75.2121 130.191 73.1516C130.306 72.063 130.037 70.6635 129.422 69.8082C126.191 65.1429 122.769 60.5943 119.538 55.9679C116.693 51.9247 114.039 47.7649 111.271 43.6828C110.848 43.0608 110.117 42.672 109.655 42.0499C107.271 38.6288 104.925 35.1298 102.541 31.7087C100.772 29.2205 98.8495 26.8101 97.119 24.322C94.8886 21.1341 92.8504 17.7907 90.62 14.6416C88.4665 11.6092 86.1976 8.65456 83.7749 5.85541C82.0829 3.91156 79.5833 4.49472 77.3144 4.33921C76.776 4.30033 75.9685 3.6783 75.8531 3.13402C75.5839 2.16209 75.8916 1.15129 77.199 1.03466C77.8912 0.956908 78.6219 0.956903 79.3141 0.956903C82.852 0.956903 86.3514 0.956903 89.8893 0.956903C97.5035 0.956903 105.156 0.995784 112.77 0.91803C114.385 0.91803 115.116 1.46231 114.732 3.01739C114.578 3.56167 113.886 4.14482 113.347 4.30033C112.578 4.53359 111.694 4.30033 110.886 4.41696C110.463 4.49472 109.886 4.88349 109.809 5.23338C109.694 5.73878 109.771 6.43857 110.04 6.82734C111.655 8.96558 113.386 11.0261 115.039 13.1643C117.347 16.1578 119.577 19.2291 121.884 22.2227C126.114 27.7043 130.344 33.1082 134.575 38.5899C134.921 39.0564 135.19 39.5618 135.459 40.0672C135.69 39.9895 135.997 39.9117 136.305 39.8728ZM153.456 6.12755C152.649 7.25499 151.572 8.11028 151.303 9.15996C150.226 13.3587 149.38 17.6352 148.419 21.8339C148.188 22.8836 147.611 23.8555 147.419 24.9052C146.65 28.8318 146.073 32.7972 145.188 36.7238C144.458 39.9895 143.227 43.1774 142.535 46.4819C142.073 48.659 142.035 50.9139 143.765 52.8578C145.611 54.9183 147.265 57.1342 148.995 59.3114C153.533 65.1818 158.148 71.0522 162.647 77.0004C164.608 79.5663 166.377 82.2877 168.338 84.8925C169.684 86.6808 171.261 88.3136 172.645 90.0631C174.991 93.0566 177.26 96.1668 179.606 99.1603C183.259 103.826 186.989 108.413 190.527 113.156C192.296 115.528 194.142 117.122 197.372 116.266C199.334 115.722 200.18 114.595 199.334 112.651C197.257 107.791 195.142 102.931 193.027 98.1107C192.181 96.1279 191.296 94.1841 190.527 92.1625C189.835 90.413 189.258 88.5858 188.489 86.8363C187.028 83.5318 184.99 80.4216 183.99 77.0004C182.567 72.0242 179.76 67.7088 178.375 62.6937C177.029 57.834 174.068 53.5187 172.645 48.5424C171.684 45.1601 169.8 42.0888 168.338 38.862C167.185 36.2573 165.954 33.6525 164.916 30.97C164.07 28.754 163.532 26.4214 162.685 24.2054C161.493 20.9786 160.032 17.8684 158.878 14.6416C157.802 11.4537 156.302 8.61568 153.456 6.12755Z" fill="black"/>
<path d="M119.654 249.07C119.654 253.852 119.692 258.673 119.615 263.454C119.615 264.232 119 265.398 118.385 265.67C117.846 265.904 116.731 265.204 116.193 264.621C115.501 263.882 114.962 262.871 114.616 261.861C114.116 260.5 113.04 260.228 111.732 260.889C109.232 262.172 106.656 263.221 104.079 264.388C101.926 265.359 99.8109 266.331 97.6574 267.264C95.9269 268.003 94.1579 268.586 92.4659 269.364C89.9663 270.491 87.5436 271.774 85.0055 272.863C81.9675 274.185 78.8527 275.351 75.8147 276.634C74.9687 276.984 73.9688 277.372 73.4304 278.033C73.0843 278.461 73.2766 279.938 73.6612 280.172C78.2758 283.087 83.0058 285.848 87.6974 288.608C91.8506 291.018 96.0422 293.312 100.157 295.722C101.618 296.578 102.926 297.627 104.387 298.522C106.002 299.493 107.733 300.349 109.386 301.243C110.309 301.748 111.271 302.215 112.194 302.681C113.809 303.498 114.847 302.992 115.231 301.243C115.308 300.932 115.193 300.465 115.347 300.31C116.078 299.571 116.847 298.483 117.731 298.327C119.039 298.133 119.5 299.377 119.5 300.582C119.577 304.392 119.654 308.202 119.654 312.012C119.615 322.12 119.538 332.189 119.5 342.297C119.5 343.58 119.308 344.669 117.693 344.669C116.078 344.669 115.462 343.697 115.27 342.258C115.193 341.753 115.347 341.209 115.231 340.703C115.155 340.237 115.039 339.459 114.732 339.342C113.04 338.759 111.309 338.254 109.579 337.826C108.848 337.671 108.04 337.826 107.233 337.787C106.925 337.787 106.541 337.593 106.31 337.71C102.349 339.187 98.1957 338.409 94.1579 338.448C87.9666 338.526 81.7753 338.371 75.5839 338.254C66.9699 338.098 58.3944 337.826 49.7803 337.671C46.7039 337.593 43.6275 337.593 40.551 337.671C38.3975 337.71 36.244 338.137 34.129 338.098C26.0918 338.021 18.0546 337.787 9.97895 337.632C5.67194 337.554 5.32584 337.943 4.82592 342.375C4.71056 343.191 5.05666 344.513 3.55689 344.552C2.05713 344.552 1.71103 343.425 1.51875 342.219C1.4803 342.025 1.51875 341.831 1.4803 341.636C1.44184 340.548 1.4803 339.42 1.36493 338.332C1.17266 336.038 0.941919 333.744 0.711187 331.45C0.672731 330.984 0.672735 330.556 0.672735 330.09C0.865012 323.597 1.51875 317.066 1.09574 310.573C0.788098 305.519 0.634281 300.465 0.595825 295.373C0.595825 292.029 0.980377 288.725 1.1342 285.381C1.24957 283.087 1.21111 280.794 1.28802 278.539C1.28802 277.956 1.17265 277.256 1.4803 276.828C1.90331 276.206 2.59551 275.506 3.24925 275.39C3.71071 275.312 4.40291 276.089 4.82592 276.595C5.09511 276.906 5.09511 277.45 5.17202 277.878C5.47966 280.249 6.78715 281.027 8.97911 280.055C13.1707 278.189 17.2855 276.206 21.5156 274.418C24.2459 273.251 27.1301 272.396 29.8989 271.269C30.7064 270.958 31.2833 270.141 31.9755 269.558C31.4755 269.053 31.0141 268.508 30.4373 268.12C27.9761 266.331 25.515 264.504 22.9769 262.832C20.708 261.355 18.2469 260.111 15.9011 258.75C13.7476 257.506 11.6325 256.223 9.51749 254.94C9.2483 254.785 8.97911 254.59 8.70992 254.474C5.59503 252.997 5.44121 253.152 4.6721 256.534C4.55673 257.079 3.59535 257.895 3.17234 257.817C2.55705 257.701 1.67257 256.923 1.59566 256.34C1.36493 254.629 1.40339 252.841 1.40339 251.092C1.40339 247.476 1.44184 243.822 1.51875 240.206C1.51875 239.545 1.78794 238.845 2.13404 238.301C2.44169 237.873 3.13388 237.329 3.51844 237.407C3.9799 237.523 4.59519 238.223 4.63365 238.69C4.74901 242.811 7.21016 244.677 10.6711 246.271C15.2858 248.409 19.6313 251.208 24.1306 253.657C25.861 254.59 27.7069 255.329 29.4374 256.262C30.7449 256.962 31.937 257.895 33.206 258.595C36.5132 260.461 39.8204 262.405 43.2429 264.038C44.1658 264.465 45.6271 263.921 46.7808 263.649C47.7807 263.377 48.7036 262.832 49.665 262.444C51.78 261.511 53.8951 260.539 56.0486 259.683C58.2405 258.828 60.5094 258.128 62.7398 257.312C63.6628 256.962 64.5857 256.573 65.5086 256.184C70.0079 254.357 74.4687 252.452 79.0065 250.703C82.2367 249.459 85.5823 248.409 88.8126 247.165C91.6968 246.076 94.504 244.871 97.3497 243.705C101.657 241.917 105.964 240.128 110.271 238.379C111.309 237.951 112.386 237.679 113.424 237.251C114.578 236.785 115.116 235.93 115.231 234.608C115.347 233.636 115.808 232.664 116.385 231.847C116.577 231.575 117.885 231.575 118.077 231.847C118.654 232.703 119.269 233.752 119.269 234.724C119.385 239.506 119.308 244.327 119.308 249.109C119.615 249.07 119.615 249.07 119.654 249.07ZM6.09495 310.729C6.24877 310.768 6.36414 310.807 6.51796 310.846C6.51796 311.506 6.55642 312.129 6.51796 312.789C6.21032 316.794 9.01756 318.465 12.1709 318.31C17.0548 318.077 21.9386 318.038 26.784 317.377C29.745 316.988 32.7446 317.183 35.7441 317.183C54.4334 317.144 73.1612 317.144 91.8506 317.105C93.1581 317.105 94.4656 316.755 95.773 316.755C98.4265 316.794 101.041 317.105 103.656 317.027C106.041 316.949 108.463 316.561 110.848 316.211C111.424 316.133 112.424 315.627 112.424 315.355C112.424 314.656 112.078 313.8 111.578 313.334C110.694 312.517 109.617 311.934 108.579 311.312C106.348 309.913 104.041 308.591 101.811 307.23C100.311 306.297 98.8879 305.286 97.3882 304.431C95.7346 303.498 93.9272 302.759 92.2736 301.787C89.6202 300.232 87.0821 298.522 84.4287 296.966C80.4678 294.673 76.4684 292.457 72.5075 290.241C69.8156 288.725 67.2006 286.975 64.3549 285.809C61.4708 284.642 58.8558 282.271 55.1256 284.409C51.7031 286.392 47.7422 287.442 44.0505 288.997C40.7049 290.396 37.4361 292.029 34.0905 293.429C30.5526 294.906 26.9378 296.15 23.3999 297.627C19.5928 299.221 15.7857 300.932 12.0171 302.681C10.5173 303.381 8.70992 304.042 7.8639 305.286C6.78715 306.802 6.63332 308.902 6.09495 310.729Z" fill="black"/>
<path d="M484.865 158.487C488.903 155.843 492.326 153.394 495.94 151.295C499.709 149.079 503.67 147.212 507.554 145.152C511.284 143.169 515.053 141.148 518.744 139.048C522.282 137.027 525.743 134.888 529.281 132.789C530.243 132.206 531.204 131.7 532.165 131.156C534.319 129.912 536.434 128.59 538.626 127.385C543.241 124.897 547.855 122.526 552.47 120.037C554.277 119.065 555.969 117.821 557.815 116.849C561.622 114.867 565.506 113.001 569.275 110.979C571.198 109.968 572.928 108.608 574.813 107.558C577.043 106.314 579.312 105.225 581.581 104.059C582.234 103.709 582.85 103.359 583.465 103.009C585.811 101.726 588.118 100.288 590.541 99.1604C591.925 98.4995 592.464 97.6442 592.656 96.1669C592.81 94.5729 593.31 93.0567 593.579 91.4627C593.733 90.4131 594.271 89.7522 595.194 90.1409C595.848 90.4131 596.578 91.2684 596.732 92.007C597.001 93.2511 596.847 94.5729 596.847 95.8947C596.886 102.037 596.847 108.219 596.963 114.361C597.001 117.199 597.424 120.076 597.424 122.914C597.424 125.869 597.04 128.824 597.001 131.778C597.001 133.8 597.347 135.86 597.578 137.882C597.655 138.465 597.77 139.048 597.809 139.593C597.809 146.046 597.847 152.539 597.77 158.992C597.77 159.964 597.386 161.092 596.809 161.83C596.463 162.297 595.309 162.374 594.579 162.258C594.232 162.219 593.809 161.403 593.733 160.858C593.579 159.964 593.694 159.031 593.694 158.137C593.656 156.271 592.579 155.532 590.964 156.504C587.657 158.448 584.465 160.547 581.158 162.53C578.889 163.891 576.543 165.057 574.236 166.34C569.506 169.061 564.776 171.822 560.007 174.504C555.316 177.148 550.509 179.636 545.817 182.318C543.164 183.835 540.664 185.662 538.049 187.217C535.896 188.461 533.627 189.472 531.473 190.677C528.858 192.115 526.282 193.671 523.705 195.148C520.321 197.092 516.937 199.036 513.591 201.018C508.592 203.934 503.631 206.85 498.671 209.804C494.556 212.254 490.441 214.703 486.365 217.191C484.75 218.163 484.634 219.757 484.596 221.506C484.596 222.673 484.365 223.956 483.865 225.044C483.365 226.172 481.404 226.016 480.712 224.889C480.289 224.189 479.981 223.334 479.981 222.556C479.866 217.308 479.789 212.059 479.751 206.811C479.712 203.973 479.712 201.096 479.712 198.258C479.712 194.72 479.828 191.143 479.674 187.606C479.481 183.096 478.905 178.586 478.751 174.038C478.635 170.228 478.789 166.418 478.982 162.608C479.097 160.081 479.597 157.554 479.751 155.027C479.866 153.511 480.597 153.005 481.943 153.005C483.442 153.005 483.865 153.938 484.019 155.26C484.173 156.193 484.481 157.048 484.865 158.487ZM484.865 186.75C484.788 192.077 485.019 192.193 489.134 189.977C489.365 189.861 489.557 189.705 489.787 189.588C492.749 187.917 495.71 186.245 498.671 184.534C502.862 182.124 507.016 179.636 511.169 177.187C513.168 176.02 515.283 175.048 517.245 173.882C521.052 171.666 524.859 169.333 528.627 167.079C530.589 165.912 532.55 164.746 534.511 163.541C535.819 162.763 537.049 161.869 538.357 161.13C540.779 159.77 543.202 158.448 545.625 157.087C550.97 154.094 556.277 150.984 561.622 148.029C564.276 146.552 567.083 145.424 569.698 143.908C574.274 141.303 578.812 138.582 583.35 135.938C585.618 134.616 588.041 133.489 590.195 131.973C592.502 130.34 592.887 128.085 591.848 125.325C591.041 123.148 590.31 122.603 588.31 123.847C587.618 124.275 586.964 124.819 586.272 125.169C582.734 126.996 579.12 128.668 575.659 130.573C572.697 132.206 569.89 134.111 566.968 135.821C562.661 138.348 558.354 140.837 554.047 143.325C551.893 144.53 549.624 145.58 547.509 146.824C544.471 148.612 541.587 150.556 538.549 152.344C534.819 154.56 531.05 156.698 527.32 158.876C523.859 160.897 520.436 162.958 517.014 165.018C514.245 166.651 511.476 168.284 508.708 169.917C507.362 170.694 506.054 171.472 504.67 172.21C502.362 173.416 499.978 174.504 497.671 175.787C494.902 177.303 492.133 178.742 489.557 180.53C487.288 182.202 483.75 183.057 484.865 186.75Z" fill="black"/>
<path d="M147.496 596.475C147.803 596.553 147.957 596.631 148.149 596.67C149.226 597.059 150.687 597.408 150.264 598.808C150.034 599.586 148.649 600.441 147.726 600.48C141.189 600.752 134.651 600.869 128.114 600.869C114.655 600.907 101.195 600.83 87.7358 600.791C82.852 600.791 78.0066 600.674 73.1227 600.596C72.6228 600.596 71.9691 600.674 71.623 600.402C70.8154 599.78 70.1617 599.002 69.4695 598.264C70.277 597.758 71.0077 596.942 71.8922 596.786C74.1226 596.359 76.1223 594.221 76.8914 592.005C77.5836 589.983 78.9295 588.195 80.0063 586.29C81.506 583.568 83.0058 580.886 84.5055 578.164C87.0052 573.655 89.5048 569.106 92.0428 564.596C93.7349 561.603 95.6576 558.726 97.3112 555.693C101.003 548.968 104.502 542.203 108.194 535.477C110.732 530.851 113.462 526.302 116.039 521.676C117.577 518.916 118.923 516.039 120.423 513.24C121.461 511.296 122.653 509.469 123.73 507.564C125.345 504.726 126.845 501.849 128.499 499.011C129.845 496.717 131.306 494.462 132.69 492.168C132.767 492.052 132.882 491.974 132.882 491.857C133.229 488.942 135.344 489.291 137.382 489.291C143.919 489.33 150.457 489.291 156.994 489.291C157.686 489.291 158.378 489.369 159.417 489.408C158.225 491.469 157.186 493.296 156.148 495.045C153.61 499.205 151.033 503.326 148.534 507.486C146.15 511.568 143.919 515.728 141.497 519.81C138.651 524.631 135.613 529.335 132.806 534.156C129.306 540.143 125.961 546.169 122.5 552.195C120.846 555.033 119.039 557.793 117.385 560.631C115.462 563.858 113.616 567.123 111.732 570.389C109.963 573.46 108.194 576.531 106.387 579.564C103.926 583.724 101.387 587.845 98.9263 591.966C98.388 592.86 97.8111 593.754 97.2728 594.687C96.619 595.853 96.8498 596.553 98.3111 596.553C100.426 596.553 102.58 596.748 104.656 596.475C105.656 596.359 106.656 595.542 107.425 594.804C108.233 594.026 108.848 593.015 109.463 592.082C111.77 588.545 114.155 585.084 116.308 581.43C118.846 577.115 121.154 572.644 123.615 568.29C124.807 566.151 126.153 564.13 127.422 562.03C128.383 560.436 129.345 558.804 130.268 557.171C131.69 554.644 133.113 552.078 134.498 549.551C135.805 547.14 137.036 544.73 138.42 542.359C139.189 540.998 140.227 539.754 141.035 538.393C142.804 535.283 144.419 532.134 146.227 529.063C148.265 525.525 150.457 522.026 152.495 518.488C153.418 516.855 154.148 515.145 155.071 513.512C155.571 512.579 156.417 511.84 156.917 510.946C159.647 506.047 162.339 501.11 165.07 496.25C165.762 495.045 166.762 494.034 167.492 492.868C168.108 491.857 168.531 490.769 169.108 489.486C177.375 489.486 185.989 489.486 194.834 489.486C193.334 492.052 192.027 494.384 190.643 496.717C188.951 499.555 187.258 502.393 185.566 505.231C182.836 509.78 179.99 514.25 177.337 518.838C175.414 522.104 173.761 525.525 171.915 528.868C171.069 530.346 169.954 531.667 169.069 533.145C166.992 536.799 164.993 540.492 162.916 544.147C161.263 547.024 159.532 549.823 157.879 552.7C155.571 556.626 153.302 560.553 150.957 564.441C148.226 568.951 145.38 573.382 142.689 577.892C139.612 583.024 136.613 588.195 133.652 593.365C133.152 594.221 132.883 595.581 133.19 596.437C133.498 597.253 136.459 596.553 137.305 595.542C138.189 594.532 138.958 593.443 139.843 592.471C141.958 590.177 143.15 590.138 145.534 592.316C147.188 593.948 147.188 593.948 147.496 596.475Z" fill="black"/>
<path d="M260.747 489.486C271.745 489.486 282.743 489.486 293.78 489.486C293.78 489.563 293.78 489.68 293.78 489.758C293.357 489.797 292.934 489.874 292.511 489.874C289.127 489.952 288.05 491.002 288.05 494.345C288.05 503.404 288.088 512.462 288.012 521.559C287.973 527.624 287.819 533.728 287.665 539.793C287.627 541.425 287.166 543.019 287.089 544.613C287.05 545.546 287.512 546.518 287.512 547.451C287.589 550.834 287.704 554.177 287.627 557.559C287.435 568.989 287.204 580.419 286.973 591.849C286.973 591.966 287.05 592.082 287.089 592.199C288.435 592.354 289.011 591.771 289.434 589.866C290.473 585.512 291.434 581.119 292.665 576.804C293.357 574.315 294.587 572.022 295.395 569.572C295.972 567.862 296.203 565.996 296.664 564.246C297.087 562.73 297.702 561.253 298.164 559.737C298.625 558.143 298.971 556.549 299.394 554.955C300.433 551.028 301.433 547.101 302.586 543.214C303.394 540.57 304.547 538.004 305.355 535.361C305.778 533.961 305.816 532.484 306.201 531.045C307.278 527.158 308.393 523.27 309.547 519.382C310.739 515.378 312.085 511.373 313.2 507.369C314.392 503.209 315.315 499.011 316.507 494.851C317.007 493.14 317.776 491.507 318.545 489.913C318.661 489.641 319.314 489.447 319.699 489.447C321.314 489.408 322.929 489.214 324.506 489.486C325.198 489.602 326.044 490.574 326.275 491.352C327.467 494.773 328.467 498.272 329.543 501.732C330.812 505.814 332.12 509.896 333.274 514.017C334.12 517.011 334.658 520.082 335.466 523.075C336.081 525.291 336.888 527.43 337.581 529.607C338.196 531.59 338.85 533.572 339.388 535.594C340.311 539.015 341.157 542.436 342.08 545.857C343.118 549.745 344.233 553.594 345.349 557.443C346.541 561.642 347.848 565.801 349.002 570C349.886 573.266 350.54 576.57 351.425 579.875C352.117 582.518 352.924 585.162 353.693 587.767C354.232 589.633 354.886 591.499 355.27 593.404C355.77 595.97 356.462 596.631 359.039 596.67C359.5 596.67 360.039 596.514 360.346 596.709C361 597.136 361.5 597.719 362.077 598.264C361.538 598.808 361 599.391 360.423 599.897C360.269 600.013 359.923 599.974 359.654 599.974C350.194 600.208 340.734 600.441 331.274 600.752C329.851 600.791 329.044 600.363 329.044 598.847C329.005 597.37 329.813 596.825 331.197 596.748C334.158 596.553 334.312 596.164 333.504 593.093C332.658 589.983 332.082 586.795 331.235 583.685C330.543 581.197 329.582 578.786 328.89 576.298C327.967 573.033 327.236 569.689 326.275 566.423C325.621 564.169 324.698 562.03 323.852 559.814C323.775 559.581 323.506 559.387 323.467 559.153C322.352 554.644 321.352 550.095 320.16 545.624C318.968 541.192 317.622 536.799 316.238 532.445C316.161 532.173 315.007 532.017 314.546 532.212C314.161 532.367 314.007 533.145 313.815 533.689C312.892 536.488 311.931 539.287 311.085 542.125C310.546 543.952 310.162 545.819 309.624 547.646C309.201 549.084 308.508 550.445 308.047 551.883C307.701 552.972 307.47 554.06 307.201 555.149C306.432 558.181 305.663 561.175 304.817 564.207C304.355 565.84 303.74 567.395 303.201 568.989C302.778 570.272 302.355 571.516 301.971 572.799C300.356 578.164 298.702 583.49 297.087 588.855C296.51 590.838 295.818 592.782 295.472 594.804C295.395 595.348 296.164 596.32 296.779 596.592C297.549 596.942 298.625 596.553 299.433 596.825C300.317 597.175 301.663 597.914 301.702 598.536C301.817 599.78 300.779 600.713 299.317 600.713C294.626 600.713 289.973 600.791 285.281 600.752C283.282 600.713 281.282 600.285 279.282 600.285C273.822 600.363 268.361 600.557 262.862 600.674C262.362 600.674 261.708 600.713 261.362 600.441C260.747 599.897 260.016 599.158 259.978 598.458C259.978 597.953 260.862 597.136 261.554 596.903C262.285 596.631 263.208 596.825 264.015 596.786C266.284 596.709 266.861 596.164 266.861 593.871C266.823 576.493 266.784 559.153 266.784 541.775C266.784 532.834 266.823 523.892 266.746 514.95C266.746 512.967 266.323 510.985 266.284 509.041C266.246 507.991 266.746 506.903 266.746 505.853C266.823 502.432 266.784 498.972 266.784 495.551C266.784 491.43 265.515 490.069 261.4 489.836C261.17 489.836 260.9 489.758 260.67 489.719C260.708 489.68 260.747 489.602 260.747 489.486Z" fill="black"/>
<path d="M119.577 214.508C119.577 217.541 119.538 220.612 119.577 223.644C119.615 225.277 118.961 226.366 117.346 226.366C115.847 226.366 115.385 225.122 115.462 223.8C115.577 221.817 114.424 220.573 113.155 219.368C106.425 213.148 99.6568 206.966 92.9271 200.746C87.2742 195.536 81.6212 190.327 75.9683 185.156C71.9689 181.463 67.9696 177.77 63.8548 174.193C62.2397 172.793 60.5477 171.316 58.6249 170.577C57.1251 169.994 55.1254 170.072 53.5488 170.577C48.0496 172.366 42.6274 174.504 37.1668 176.409C32.2445 178.158 27.2453 179.791 22.323 181.541C18.3236 182.979 14.3627 184.612 10.3633 186.089C9.55575 186.4 8.63281 186.4 7.82525 186.711C5.7102 187.567 5.21028 189.472 4.94109 191.454C4.86418 192.076 4.82573 192.737 4.78727 193.398C4.78727 194.526 4.36426 195.536 3.17214 195.225C2.5184 195.031 1.71084 193.981 1.63393 193.243C0.172619 183.251 0.634082 173.182 0.826359 163.113C0.864815 161.791 1.05709 160.469 1.28782 159.186C1.55701 157.826 2.71068 157.903 3.5567 158.214C4.05662 158.409 4.55654 159.225 4.6719 159.847C4.94109 161.169 4.97955 162.53 5.17183 163.852C5.3641 165.135 6.51776 165.64 8.01753 164.979C10.5556 163.852 13.0552 162.608 15.5933 161.48C16.7085 161.014 17.9006 160.741 19.0158 160.353C23.4382 158.798 27.8605 157.242 32.2829 155.649C34.1672 154.949 35.9746 154.055 37.8205 153.277C39.3972 152.577 39.6279 151.722 38.4358 150.517C36.513 148.651 34.4364 146.901 32.4752 145.035C30.6678 143.247 28.9757 141.342 27.1683 139.553C24.2457 136.715 21.3231 133.877 18.3236 131.117C14.8626 127.929 11.2862 124.858 7.70989 121.787C7.0946 121.281 6.21012 121.126 5.44101 120.815C5.17182 121.631 4.74881 122.409 4.6719 123.264C4.44117 125.169 3.86434 125.869 2.21076 125.363C1.63393 125.208 0.864815 124.43 0.826359 123.886C0.787904 121.553 0.980182 119.26 1.134 116.927C1.134 116.616 1.28782 116.305 1.28782 115.994C1.32628 113.817 1.32628 111.679 1.32628 109.501C1.32628 107.013 1.32628 104.564 1.32628 102.076C1.32628 100.793 1.44165 99.2768 2.97987 99.3157C3.51824 99.3157 4.17199 100.987 4.51808 101.998C4.74882 102.62 4.63345 103.437 4.55654 104.136C4.09507 107.713 6.24858 109.501 8.82509 111.29C10.9017 112.728 12.6322 114.633 14.478 116.344C19.2081 120.776 23.8996 125.324 28.6681 129.718C34.6287 135.199 40.7047 140.564 46.6652 146.007C48.4726 147.679 50.1647 148.534 52.7412 147.173C55.2024 145.852 58.0481 145.191 60.7015 144.219C63.3164 143.247 65.893 142.119 68.5464 141.264C71.046 140.448 73.661 139.903 76.199 139.126C78.814 138.309 81.3905 137.26 84.0055 136.404C86.3513 135.627 88.697 134.927 91.0428 134.15C93.7347 133.216 96.3881 132.206 99.08 131.273C100.426 130.806 101.887 130.612 103.233 130.145C106.425 129.134 109.655 128.201 112.693 126.841C113.77 126.374 114.308 124.702 115.116 123.575C115.5 123.031 116.154 122.02 116.385 122.098C117.193 122.37 118.115 122.914 118.538 123.614C118.923 124.236 118.808 125.247 118.846 126.063C119.038 130.029 119.192 133.994 119.346 137.959C119.346 138.154 119.423 138.387 119.384 138.543C117.808 142.897 119.846 147.251 119.461 151.605C119.384 152.305 119.154 153.199 118.692 153.666C118.192 154.132 117.231 154.404 116.577 154.288C116.116 154.21 115.577 153.394 115.424 152.81C115.077 151.683 115.116 150.361 114.616 149.312C114.385 148.806 113.232 148.262 112.693 148.417C110.347 149.078 108.079 149.972 105.771 150.828C103.387 151.683 100.964 152.499 98.6185 153.394C95.4652 154.56 92.3119 155.804 89.12 156.97C85.8898 158.176 82.6211 159.264 79.3908 160.469C77.5065 161.169 75.6991 162.063 73.8532 162.88C72.738 163.385 71.6613 163.968 70.5076 164.435C68.7771 165.212 69.6616 166.262 70.3923 166.923C76.3144 172.56 82.275 178.158 88.1971 183.757C92.5426 187.839 96.9265 191.921 101.31 196.003C105.041 199.463 108.771 202.884 112.539 206.305C113.808 207.472 114.578 207.238 115.154 205.644C115.308 205.217 115.308 204.75 115.347 204.323C115.462 203.04 115.847 201.99 117.385 202.107C118.885 202.223 119.461 203.312 119.5 204.595C119.615 207.899 119.577 211.204 119.577 214.508Z" fill="black"/>
<path d="M463.215 598.069C464.292 597.642 465.253 597.136 466.291 596.864C467.945 596.436 468.522 595.309 467.56 593.871C466.176 591.771 464.638 589.75 463.33 587.611C461.408 584.501 459.677 581.236 457.793 578.125C456.562 576.143 455.139 574.277 453.87 572.333C451.755 569.106 449.679 565.801 447.602 562.536C444.064 557.015 440.526 551.495 437.027 545.974C433.873 541.037 430.759 536.099 427.605 531.162C427.298 530.695 426.759 530.345 426.375 529.957C426.144 530.54 425.682 531.123 425.682 531.706C425.644 542.203 425.721 552.7 425.682 563.197C425.682 564.48 425.221 565.762 425.029 567.045C424.99 567.279 425.106 567.512 425.144 567.745C425.336 568.795 425.682 569.883 425.682 570.933C425.759 578.242 425.721 585.59 425.759 592.899C425.759 596.048 426.298 596.514 429.413 596.748C430.412 596.825 431.374 597.37 432.412 597.719C431.681 600.052 430.297 600.596 428.567 600.596C425.567 600.635 422.529 600.791 419.53 600.674C417.53 600.596 415.492 600.246 413.492 599.858C413.107 599.78 412.569 598.963 412.608 598.497C412.646 597.914 413.107 597.331 413.492 596.825C413.607 596.67 413.992 596.748 414.223 596.709C415.299 596.475 417.03 596.592 417.338 595.97C417.991 594.57 418.03 592.782 418.222 591.188C418.337 590.216 418.222 589.244 418.26 588.272C418.26 587.884 418.337 587.495 418.299 587.106C418.03 577.426 417.645 567.745 417.53 558.104C417.376 542.747 417.722 527.391 417.299 512.034C417.184 508.03 416.492 503.987 416.568 499.944C416.607 498.039 416.991 496.134 417.107 494.229C417.145 493.646 416.838 493.024 416.645 492.402C415.992 490.224 416.568 489.408 418.76 489.369C418.953 489.369 419.145 489.408 419.337 489.369C423.837 488.514 426.221 490.846 428.144 494.656C430.066 498.427 432.566 501.888 434.873 505.425C437.027 508.808 439.257 512.112 441.449 515.494C443.18 518.138 444.91 520.743 446.602 523.386C447.871 525.408 449.025 527.507 450.332 529.49C451.832 531.862 453.486 534.194 454.985 536.566C456.447 538.86 457.793 541.231 459.254 543.564C461.254 546.752 463.253 549.94 465.253 553.127C467.214 556.276 469.137 559.464 471.098 562.613C473.021 565.724 475.059 568.756 476.944 571.905C479.097 575.521 481.058 579.214 483.212 582.83C484.519 585.045 486.096 587.145 487.442 589.322C488.48 591.033 489.249 592.899 490.364 594.531C491.403 596.048 492.787 597.097 494.864 596.825C495.94 596.67 497.094 596.631 498.094 596.981C498.825 597.214 499.325 598.147 499.94 598.73C499.171 599.352 498.479 600.441 497.633 600.557C495.633 600.83 493.556 600.713 491.48 600.713C483.019 600.713 474.559 600.674 466.099 600.791C464.215 600.868 463.907 599.663 463.215 598.069Z" fill="black"/>
<path d="M459.331 5.27236C457.331 5.15573 455.87 5.31124 454.562 4.92247C453.716 4.6892 453.062 3.6784 452.332 3.01749C453.216 2.51209 454.101 1.61792 454.985 1.57904C458.677 1.54016 462.369 1.85118 466.099 1.89006C473.79 1.96781 481.481 1.92893 489.172 1.89006C490.403 1.89006 491.326 2.12332 491.595 3.83391C490.941 4.02829 490.287 4.30043 489.595 4.37819C488.326 4.53369 487.057 4.76695 485.788 4.65032C482.442 4.33931 481.404 6.94407 480.173 9.16006C477.789 13.4754 475.597 17.9074 473.367 22.3005C471.982 25.0219 470.79 27.821 469.406 30.5424C467.291 34.78 465.176 39.0176 462.984 43.2552C461.292 46.5598 459.484 49.8255 457.715 53.0911C456.023 56.2402 453.87 59.1948 452.716 62.5383C451.332 66.5815 448.448 69.7305 447.179 73.8126C446.294 76.6506 444.41 79.1388 443.064 81.8213C440.834 86.1366 438.718 90.5297 436.45 94.8062C435.565 96.5168 434.373 98.0719 433.489 99.7436C432.104 102.348 430.912 105.07 429.605 107.675C428.528 109.852 427.297 111.99 426.259 114.206C425.99 114.75 425.836 115.8 426.144 116.033C426.682 116.5 427.566 116.577 428.297 116.772C429.297 117.005 430.451 116.927 431.22 117.433C431.643 117.705 431.681 119.027 431.489 119.765C431.373 120.193 430.412 120.582 429.797 120.621C421.99 120.854 414.222 121.009 406.416 121.126C403.224 121.165 400.032 121.165 396.841 121.126C394.495 121.087 392.995 119.688 393.879 118.21C394.418 117.316 395.956 116.383 396.956 116.461C400.417 116.811 402.147 115.1 403.455 112.184C404.532 109.774 405.993 107.597 407.262 105.264C408.992 102.076 410.761 98.9272 412.377 95.6615C414.492 91.4239 416.376 87.0308 418.568 82.8321C420.298 79.4498 422.413 76.223 424.182 72.8795C425.721 69.9638 426.913 66.8536 428.451 63.9378C429.72 61.5274 431.373 59.3115 432.643 56.9011C434.681 53.0134 436.45 49.009 438.526 45.1213C441.218 40.0284 444.102 35.0522 446.871 30.037C447.986 27.9766 449.025 25.8772 450.101 23.8167C452.562 19.1126 455.062 14.4085 457.523 9.70434C458.139 8.34364 458.638 6.94407 459.331 5.27236Z" fill="black"/>
<path d="M194.104 525.719C193.719 526.186 193.296 526.614 192.95 527.119C191.835 528.907 189.95 529.646 188.066 527.741C187.451 527.119 186.72 526.536 186.259 525.797C185.951 525.253 185.682 524.242 185.99 523.814C189.681 518.255 193.488 512.773 197.257 507.253C200.218 502.937 203.179 498.583 206.14 494.229C206.602 493.529 207.178 492.868 207.448 492.091C208.486 489.214 210.755 489.175 213.216 489.33C215.177 489.447 217.177 489.408 219.177 489.33C220.369 489.292 220.869 489.758 220.638 490.924C220.1 493.529 219.523 496.134 218.984 498.778C218.907 499.205 218.869 499.672 218.754 500.099C218.061 503.443 217.369 506.825 216.715 510.169C216.331 512.112 216.1 514.095 215.716 516.039C215.177 518.722 214.447 521.326 213.908 524.009C213.447 526.225 213.216 528.441 212.793 530.657C212.255 533.534 211.601 536.411 210.986 539.326C210.563 541.465 210.14 543.564 209.755 545.702C209.14 548.968 208.486 552.195 207.871 555.46C207.486 557.599 207.178 559.776 206.755 561.875C205.986 565.452 205.14 568.989 204.333 572.566C204.217 573.11 204.064 573.694 203.948 574.238C203.333 577.426 202.756 580.653 202.141 583.841C201.718 586.134 201.295 588.467 200.833 590.761C200.603 591.927 200.141 593.093 199.987 594.26C199.795 595.854 200.564 596.709 202.218 596.67C202.41 596.67 202.602 596.67 202.795 596.67C204.141 596.592 205.563 596.709 205.717 598.381C205.909 600.091 204.179 599.975 203.179 600.48C202.871 600.635 202.41 600.558 202.025 600.558C197.411 600.597 192.758 600.635 188.143 600.635C187.028 600.635 185.913 600.208 184.759 600.169C183.221 600.091 181.721 600.247 180.183 600.208C178.183 600.169 176.183 600.091 174.184 599.858C173.838 599.819 173.222 598.847 173.376 598.575C173.684 597.875 174.184 597.136 174.837 596.787C175.453 596.476 176.337 596.709 177.106 596.67C179.106 596.592 180.375 595.232 180.76 593.249C181.221 590.916 181.99 588.622 182.567 586.29C183.028 584.385 183.413 582.441 183.759 580.497C184.221 578.009 184.528 575.443 184.99 572.955C185.259 571.555 185.682 570.234 185.99 568.873C186.566 566.385 187.182 563.935 187.682 561.447C188.451 557.56 189.028 553.672 189.835 549.784C190.758 545.391 191.796 540.998 192.796 536.605C193.488 533.534 194.181 530.423 194.834 527.352C194.911 526.925 194.757 526.419 194.719 525.953C194.488 525.836 194.296 525.797 194.104 525.719Z" fill="black"/>
<path d="M159.148 564.946C159.84 564.441 160.494 563.857 161.224 563.391C162.263 562.73 162.878 563.041 162.993 564.285C163.07 565.335 161.686 567.434 160.724 567.473C158.763 567.551 159.302 565.996 159.225 564.868C159.225 564.907 159.148 564.946 159.148 564.946Z" fill="white"/>
<path d="M156.071 577.776C155.417 577.542 154.686 577.426 154.225 576.998C153.994 576.804 154.302 576.026 154.34 575.482C154.879 575.715 155.571 575.793 155.879 576.182C156.148 576.571 155.994 577.27 156.032 577.853L156.071 577.776Z" fill="white"/>
<path d="M181.144 546.995C182.896 548.196 183.191 550.215 181.891 552.154C180.643 554.016 178.704 554.448 176.9 553.212L178.071 551.466C178.998 552.101 179.825 551.919 180.393 551.071C180.918 550.288 180.726 549.332 179.938 548.792C178.973 548.131 178.127 548.563 177.224 549.911L176.03 549.093L176.133 548.939C176.848 547.873 176.832 547.094 175.931 546.476C175.181 545.963 174.474 546.078 173.992 546.797C173.398 547.683 173.627 548.364 174.744 549.13L173.625 550.799L173.473 550.695C171.517 549.354 171.403 547.534 172.583 545.775C173.762 544.016 175.472 543.539 176.971 544.566C177.796 545.132 178.046 545.809 177.999 547.013C179.183 546.325 180.09 546.272 181.144 546.995Z" fill="black"/>
<path d="M171.061 554.264C172.281 555.099 172.656 556.031 172.74 558.394C172.81 560.39 172.875 560.847 173.203 561.409L175.785 557.557L177.373 558.645L173.223 564.833C171.62 563.603 171.138 562.58 171.13 560.326C171.063 557.357 170.885 556.766 169.894 556.087C168.993 555.469 168.119 555.583 167.586 556.379C167.035 557.201 167.3 558.076 168.304 558.763L168.596 558.964L167.442 560.684C167.294 560.601 167.192 560.531 167.116 560.479C165.211 559.174 164.847 557.313 166.112 555.425C167.395 553.512 169.322 553.071 171.061 554.264Z" fill="black"/>
<path d="M166.428 565.21C169.983 567.647 170.164 569.644 168.924 571.493C167.159 574.125 164.69 573.163 162.176 571.44C159.585 569.665 157.868 567.72 159.616 565.114C161.406 562.443 163.875 563.461 166.428 565.21ZM165.184 566.981C162.39 565.067 161.645 565.211 161.051 566.097C160.405 567.06 160.752 567.841 163.368 569.634C166.048 571.471 166.789 571.36 167.4 570.449C168.046 569.486 167.711 568.713 165.184 566.981Z" fill="black"/>
<path d="M158.051 573.667C159.27 574.502 159.646 575.434 159.73 577.797C159.8 579.793 159.865 580.25 160.192 580.812L162.775 576.96L164.362 578.048L160.213 584.236C158.609 583.006 158.128 581.983 158.12 579.729C158.053 576.76 157.874 576.169 156.884 575.49C155.982 574.872 155.109 574.986 154.575 575.782C154.024 576.604 154.29 577.479 155.293 578.167L155.585 578.367L154.432 580.087C154.284 580.004 154.182 579.935 154.106 579.882C152.201 578.577 151.836 576.716 153.102 574.828C154.384 572.915 156.311 572.474 158.051 573.667Z" fill="black"/>
<circle cx="301" cy="301" r="11" fill="black"/>
</svg>
